<svg width="150" height="45.5" viewBox="0 0 300 91" xmlns="http://www.w3.org/2000/svg" xmlns:xlink="http://www.w3.org/1999/xlink">
    <path id="Path" fill="#1b1819" stroke="none" d="M 12.1594 41.783169 L 178.641006 41.783169 L 178.641006 61.341187 L 12.1594 61.341187 L 12.1594 41.783169 Z"></path>
    <path id="path1" fill="#ffffff" stroke="none" d="M 80.098404 79.533707 L 83.484299 79.533707 L 83.484299 65.932289 L 80.098404 65.932289 L 80.098404 61.764156 L 90.695694 61.764156 L 90.695694 64.659897 C 91.369896 63.548431 92.2201 62.714767 93.246101 62.158989 C 94.301399 61.603207 95.5326 61.325417 96.939697 61.325417 C 98.639999 61.325417 100.106003 61.720253 101.336998 62.510017 C 102.568008 63.270546 103.520996 64.382004 104.194992 65.844589 C 104.868996 67.307068 105.206009 69.018211 105.206009 70.978004 L 105.206009 79.533707 L 108.108994 79.533707 L 108.108994 83.701942 L 94.829102 83.701942 L 94.829102 79.533707 L 97.555298 79.533707 L 97.555298 71.548355 C 97.555298 69.676361 97.291496 68.272354 96.763802 67.336311 C 96.236198 66.400368 95.503304 65.932289 94.565201 65.932289 C 93.861702 65.932289 93.246101 66.195618 92.718399 66.722061 C 92.190697 67.219368 91.780296 67.935989 91.487198 68.871933 C 91.223404 69.807976 91.0914 70.890297 91.0914 72.118797 L 91.0914 79.533707 L 93.729797 79.533707 L 93.729797 83.701942 L 80.098404 83.701942 L 80.098404 79.533707 Z"></path>
    <path id="path2" fill="#ffffff" stroke="none" d="M 122.190002 84.140671 C 119.727005 84.140671 117.543007 83.658035 115.638 82.692757 C 113.762001 81.727478 112.295998 80.382034 111.241005 78.656235 C 110.184998 76.93042 109.657997 74.956062 109.657997 72.733047 C 109.657997 70.510033 110.184998 68.535568 111.241005 66.809868 C 112.295998 65.084061 113.776001 63.738518 115.681992 62.773239 C 117.586998 61.807957 119.756996 61.325417 122.190002 61.325417 C 124.623001 61.325417 126.792007 61.807957 128.696991 62.773239 C 130.602997 63.738518 132.082993 65.084061 133.139008 66.809868 C 134.194 68.535568 134.722 70.510033 134.722 72.733047 C 134.722 74.926819 134.179001 76.88662 133.095001 78.612328 C 132.039001 80.338127 130.55899 81.698242 128.654007 82.692757 C 126.748001 83.658035 124.593002 84.140671 122.190002 84.140671 Z M 122.190002 80.060242 C 123.098 80.060242 123.875 79.79702 124.519997 79.270477 C 125.165001 78.714699 125.649002 77.895699 125.970993 76.813477 C 126.293991 75.731155 126.455002 74.371048 126.455002 72.733047 C 126.455002 71.095047 126.293991 69.734833 125.970993 68.652611 C 125.649002 67.541061 125.165001 66.722061 124.519997 66.195618 C 123.875 65.639839 123.098 65.361954 122.190002 65.361954 C 121.251999 65.361954 120.459999 65.639839 119.815002 66.195618 C 119.199997 66.722061 118.716003 67.541061 118.363998 68.652611 C 118.042007 69.734833 117.880005 71.095047 117.880005 72.733047 C 117.880005 74.371048 118.042007 75.731155 118.363998 76.813477 C 118.716003 77.895699 119.199997 78.714699 119.815002 79.270477 C 120.459999 79.79702 121.251999 80.060242 122.190002 80.060242 Z"></path>
    <path id="path3" fill="#ffffff" stroke="none" d="M 137.667999 65.932289 L 135.117004 65.932289 L 135.117004 61.764156 L 146.813995 61.764156 L 146.813995 65.932289 L 145.582993 65.932289 L 148.617004 78.349106 L 148.748993 78.349106 L 151.035004 69.925018 L 149.716003 65.932289 L 147.912994 65.932289 L 147.912994 61.764156 L 160.313004 61.764156 L 160.313004 65.932289 L 158.291 65.932289 L 161.720001 78.393005 L 161.895996 78.393005 L 164.930008 65.932289 L 162.643997 65.932289 L 162.643997 61.764156 L 171.966003 61.764156 L 171.966003 65.932289 L 169.371994 65.932289 L 164.403 83.701942 L 156.311996 83.701942 L 153.498001 73.127876 L 150.595993 83.701942 L 142.593002 83.701942 L 137.667999 65.932289 Z"></path>
    <path id="path4" fill="#1b1819" fill-rule="evenodd" stroke="none" d="M 76.610794 71.842903 C 74.584496 70.650131 73.224998 68.449463 73.224998 65.931992 L 73.224998 61.763756 C 73.224998 57.976181 76.3022 54.905727 80.098099 54.905727 L 90.695297 54.905727 C 91.285698 54.905727 91.858803 54.980061 92.405502 55.119759 C 93.897697 54.663162 95.427902 54.466991 96.9394 54.466991 C 99.721695 54.466991 102.506996 55.122353 105.004005 56.709366 C 106.295998 57.515194 107.401001 58.496532 108.327003 59.608589 C 109.580002 58.435669 111.004005 57.451332 112.569992 56.657875 C 115.566002 55.140312 118.826004 54.466991 122.189003 54.466991 C 125.253006 54.466991 128.230011 55.025463 131 56.271626 C 132.147995 55.413815 133.572998 54.905727 135.117004 54.905727 L 146.813995 54.905727 C 146.998993 54.905727 147.181992 54.913113 147.363007 54.927383 C 147.544998 54.913113 147.727997 54.905727 147.912994 54.905727 L 160.313004 54.905727 C 160.709991 54.905727 161.100006 54.939354 161.477997 55.00391 C 161.856995 54.939354 162.246002 54.905727 162.643997 54.905727 L 171.966003 54.905727 C 175.761993 54.905727 178.839005 57.976181 178.839005 61.763756 L 178.839005 65.931992 C 178.839005 68.729248 177.160004 71.135361 174.753998 72.202316 L 171.022995 85.544693 C 170.194 88.509171 167.487 90.55957 164.402008 90.55957 L 156.311996 90.55957 C 155.300003 90.55957 154.330002 90.339249 153.453003 89.938934 C 152.576996 90.339355 151.606003 90.55957 150.595001 90.55957 L 142.59201 90.55957 C 139.59201 90.55957 136.949997 88.620232 136.044998 85.787956 C 134.800995 86.965668 133.389999 87.959686 131.839005 88.769302 C 131.813995 88.782173 131.789001 88.794945 131.764999 88.807518 C 128.779999 90.31929 125.538002 90.998299 122.189003 90.998299 C 118.852005 90.998299 115.612 90.346642 112.634995 88.862198 C 111.426003 89.919075 109.842003 90.55957 108.107994 90.55957 L 94.828697 90.55957 C 94.6437 90.55957 94.460403 90.552284 94.279099 90.538017 C 94.097702 90.552284 93.914398 90.55957 93.729401 90.55957 L 80.098099 90.55957 C 76.3022 90.55957 73.224998 87.48912 73.224998 83.701538 L 73.224998 79.533401 C 73.224998 77.01593 74.584496 74.815269 76.610794 73.622391 L 76.610794 71.842903 Z M 93.729401 83.701538 L 93.729401 79.533401 L 91.091103 79.533401 L 91.091103 72.118393 C 91.091103 71.924629 91.094398 71.734543 91.100899 71.54805 C 91.101395 71.534088 91.101898 71.520012 91.102501 71.506142 C 91.106499 71.399872 91.111603 71.294907 91.117798 71.191139 C 91.1325 70.943985 91.153198 70.703506 91.18 70.469818 C 91.245804 69.896584 91.348099 69.363853 91.486801 68.871628 C 91.779999 67.935593 92.190399 67.218964 92.718102 66.721764 C 92.9104 66.529785 93.114502 66.372826 93.3302 66.2509 C 93.706299 66.038261 94.117798 65.931992 94.564896 65.931992 C 94.825302 65.931992 95.07 65.968018 95.298798 66.040161 C 95.322899 66.047836 95.346802 66.055824 95.370499 66.064201 C 95.933395 66.263268 96.397697 66.687241 96.763504 67.336014 C 96.825798 67.446472 96.884399 67.563507 96.9394 67.687134 C 97.008896 67.843597 97.072601 68.010529 97.130402 68.187836 C 97.342697 68.839699 97.475403 69.632759 97.528496 70.567108 C 97.531998 70.630264 97.535301 70.694031 97.538101 70.758484 C 97.5494 71.011726 97.555 71.274857 97.555 71.54805 L 97.555 79.533401 L 94.828697 79.533401 L 94.828697 83.701538 L 108.107994 83.701538 L 108.107994 79.533401 L 105.206009 79.533401 L 105.206009 70.977608 C 105.206009 69.017914 104.868996 67.30677 104.194992 65.844185 C 104.171997 65.794998 104.149002 65.746201 104.125999 65.697807 C 103.643997 64.696609 103.027 63.865337 102.275002 63.203991 C 101.982002 62.946854 101.669998 62.715466 101.336998 62.509613 C 100.257004 61.81694 98.996399 61.428093 97.555702 61.34288 C 97.353806 61.331009 97.148399 61.32502 96.9394 61.32502 C 96.082703 61.32502 95.291199 61.427994 94.564896 61.634041 C 94.425705 61.673454 94.289001 61.716759 94.154602 61.763756 C 93.838394 61.874413 93.5354 62.006126 93.245697 62.158688 C 92.233696 62.706779 91.392899 63.525284 90.723099 64.61409 C 90.713799 64.629158 90.704605 64.644325 90.695297 64.659592 L 90.695297 61.763756 L 80.098099 61.763756 L 80.098099 65.931992 L 83.483902 65.931992 L 83.483902 79.533401 L 80.098099 79.533401 L 80.098099 83.701538 L 93.729401 83.701538 Z M 109.657997 72.850388 C 109.676003 75.025414 110.204002 76.960655 111.240005 78.65583 C 111.426003 78.960159 111.625 79.252716 111.836998 79.533401 C 111.961998 79.699539 112.092003 79.861481 112.225998 80.019333 C 112.996994 80.92614 113.915001 81.696152 114.981003 82.329453 C 115.193993 82.455872 115.413002 82.576912 115.637001 82.692459 C 115.884995 82.817688 116.137001 82.934723 116.393005 83.043686 C 116.473999 83.078209 116.556007 83.111839 116.638 83.144661 C 118.296997 83.808411 120.146996 84.140373 122.189003 84.140373 C 124.194992 84.140373 126.028 83.804214 127.686996 83.132095 C 127.730003 83.114532 127.772995 83.096672 127.816002 83.078705 C 128.100006 82.959869 128.378998 82.831154 128.653 82.692459 C 130.055008 81.96077 131.227005 81.031105 132.168991 79.903687 C 132.506989 79.49868 132.815002 79.068123 133.093994 78.61203 C 133.331009 78.234856 133.542999 77.846512 133.727997 77.446983 C 134.384003 76.031296 134.714996 74.47522 134.720993 72.778748 C 134.720993 72.763382 134.720993 72.748016 134.720993 72.732651 C 134.720993 70.645935 134.256012 68.778336 133.326996 67.129761 C 133.266006 67.022095 133.203003 66.915337 133.138 66.809464 C 132.951996 66.505135 132.753006 66.212677 132.540009 65.931992 C 132.403 65.750092 132.259003 65.573082 132.110001 65.401161 C 131.186996 64.333702 130.048996 63.457634 128.696991 62.772938 C 128.548004 62.697201 128.397003 62.624458 128.243988 62.554718 C 128.106003 62.491959 127.968002 62.431488 127.828003 62.37352 C 127.783997 62.355556 127.741005 62.337791 127.696999 62.320332 C 126.043007 61.656788 124.206993 61.32502 122.189003 61.32502 C 120.112999 61.32502 118.229004 61.676445 116.537003 62.379303 C 116.531006 62.381897 116.525002 62.384392 116.518997 62.386986 C 116.233994 62.505623 115.955002 62.634338 115.681007 62.772938 C 114.302002 63.4715 113.145996 64.369324 112.211998 65.466316 C 111.985001 65.733627 111.769997 66.012619 111.568993 66.303574 C 111.455002 66.468414 111.345993 66.637047 111.240005 66.809464 C 110.470993 68.066902 109.982994 69.456245 109.774002 70.977608 C 109.695999 71.544357 109.656998 72.129379 109.656998 72.732651 C 109.656998 72.771957 109.656998 72.811172 109.657997 72.850388 Z M 119.815002 66.195213 C 119.268005 66.662491 118.826004 67.360054 118.487999 68.288017 C 118.444992 68.405655 118.403 68.527084 118.363998 68.652214 C 118.308998 68.836113 118.258995 69.027893 118.212997 69.227753 C 117.991005 70.204605 117.880005 71.372833 117.880005 72.732651 C 117.880005 74.101837 117.993004 75.276855 118.218002 76.257698 C 118.262001 76.450272 118.310997 76.635468 118.363998 76.81308 C 118.397995 76.919151 118.433998 77.022621 118.470993 77.123604 C 118.477005 77.140358 118.482994 77.156929 118.488998 77.173592 C 118.828003 78.078995 119.268997 78.777863 119.815002 79.27018 C 120.459999 79.796616 121.250999 80.059944 122.189003 80.059944 C 123.098 80.059944 123.875 79.796616 124.519997 79.27018 C 125.068008 78.797318 125.5 78.133881 125.816002 77.279953 C 125.827003 77.248222 125.839005 77.216194 125.849998 77.183968 C 125.893005 77.064026 125.932999 76.940399 125.970993 76.81308 C 126.028 76.622002 126.080002 76.422234 126.126999 76.213799 C 126.344994 75.241837 126.455002 74.081482 126.455002 72.732651 C 126.455002 71.356674 126.341003 70.176666 126.112999 69.192825 C 126.069992 69.005539 126.021996 68.825333 125.970993 68.652214 C 125.939003 68.541763 125.905006 68.434196 125.869995 68.32943 C 125.551003 67.380814 125.100998 66.669373 124.519997 66.195213 C 123.875 65.639435 123.098 65.361549 122.189003 65.361549 C 121.250999 65.361549 120.459999 65.639435 119.815002 66.195213 Z M 119.350998 70.501755 C 119.347 70.491776 119.344994 70.486481 119.344994 70.486282 C 119.344994 70.486191 119.347 70.491173 119.350998 70.501755 Z M 119.365005 74.912758 C 119.363998 74.916443 119.362999 74.918243 119.362999 74.918144 C 119.362999 74.918144 119.363998 74.916252 119.365005 74.912758 Z M 142.59201 83.701538 L 150.595001 83.701538 L 153.496994 73.127579 L 155.362 80.134979 L 155.363007 80.136177 L 156.311996 83.701538 L 164.402008 83.701538 L 169.371002 65.931992 L 171.966003 65.931992 L 171.966003 61.763756 L 162.643997 61.763756 L 162.643997 65.931992 L 164.930008 65.931992 L 161.895996 78.392609 L 161.720001 78.392609 L 158.290009 65.931992 L 160.313004 65.931992 L 160.313004 61.763756 L 147.912994 61.763756 L 147.912994 65.931992 L 149.716003 65.931992 L 151.035004 69.924622 L 148.748001 78.348701 L 148.615997 78.348701 L 145.582001 65.931992 L 146.813995 65.931992 L 146.813995 61.763756 L 135.117004 61.763756 L 135.117004 65.931992 L 137.667007 65.931992 L 142.59201 83.701538 Z"></path>
    <path id="path5" fill="#ffffff" stroke="none" d="M 9.37514 22.076981 L 6.87344 22.076981 L 6.87344 17.886391 L 18.346699 17.886391 L 18.346699 22.076981 L 17.139 22.076981 L 20.1152 34.560741 L 20.2446 34.560741 L 22.487499 26.091156 L 21.193501 22.076981 L 19.4251 22.076981 L 19.4251 17.886391 L 31.588501 17.886391 L 31.588501 22.076981 L 29.604401 22.076981 L 32.9688 34.604843 L 33.1413 34.604843 L 36.117401 22.076981 L 33.8745 22.076981 L 33.8745 17.886391 L 43.0187 17.886391 L 43.0187 22.076981 L 40.473801 22.076981 L 35.5998 39.942413 L 27.663401 39.942413 L 24.902901 29.311378 L 22.0562 39.942413 L 14.205999 39.942413 L 9.37514 22.076981 Z"></path>
    <path id="path6" fill="#ffffff" stroke="none" d="M 61.212299 39.412975 C 60.550896 39.648262 59.688301 39.854107 58.624298 40.030621 C 58.0205 40.118828 57.402199 40.192368 56.7696 40.251137 C 56.165699 40.33934 55.547497 40.383442 54.914898 40.383442 C 52.700798 40.383442 50.716599 39.912979 48.962601 38.971947 C 47.2085 38.030819 45.8283 36.70752 44.8218 35.001869 C 43.8442 33.29612 43.355301 31.325855 43.355301 29.090862 C 43.355301 26.797005 43.8442 24.767868 44.8218 23.003342 C 45.8283 21.238922 47.2229 19.871429 49.005699 18.900955 C 50.788502 17.930489 52.830101 17.445259 55.130604 17.445259 C 57.431 17.445259 59.443798 17.930489 61.169098 18.900955 C 62.923199 19.841995 64.274704 21.180046 65.223602 22.915138 C 66.172501 24.620789 66.6614 26.605827 66.690102 28.870251 C 66.690102 29.076099 66.675797 29.296707 66.646996 29.531895 C 66.646996 29.737839 66.632599 29.958359 66.603897 30.193638 L 51.076099 30.193638 C 51.191101 31.634575 51.421101 32.855091 51.766197 33.854889 C 52.140003 34.854794 52.614502 35.604645 53.189598 36.104645 C 53.764698 36.604549 54.426098 36.8545 55.173698 36.8545 C 55.835102 36.8545 56.568298 36.604549 57.373497 36.104645 C 58.207397 35.604645 58.926201 35.016541 59.530102 34.340126 C 60.162701 33.663715 60.550896 33.06094 60.694702 32.531601 L 60.694702 32.266884 L 65.051102 32.266884 L 65.051102 41.398113 L 61.212299 41.398113 L 61.212299 39.412975 Z M 58.969398 27.546856 C 58.8256 26.04705 58.5812 24.826637 58.236103 23.885605 C 57.891102 22.915138 57.445396 22.194626 56.898998 21.724152 C 56.352699 21.253586 55.720001 21.018311 55.001202 21.018311 C 54.282299 21.018311 53.6497 21.268257 53.103302 21.768257 C 52.556999 22.238724 52.111298 22.959236 51.766197 23.92971 C 51.449902 24.900177 51.2342 26.105927 51.119198 27.546856 L 58.969398 27.546856 Z"></path>
    <path id="path7" fill="#ffffff" stroke="none" d="M 84.043999 40.383442 C 82.663704 40.383442 81.456001 40.118828 80.420799 39.589493 C 79.385696 39.030724 78.508598 38.207325 77.789696 37.119221 L 77.789696 39.942413 L 70.715996 39.942413 L 70.715996 13.25457 L 67.265396 13.25457 L 67.265396 9.063965 L 78.134804 9.063965 L 78.134804 20.400764 C 78.824905 19.430298 79.658798 18.695114 80.636497 18.195114 C 81.642899 17.695213 82.778801 17.445259 84.043999 17.445259 C 85.913101 17.445259 87.5952 17.930489 89.0905 18.900955 C 90.5858 19.841995 91.750404 21.180046 92.584305 22.915138 C 93.418198 24.650223 93.835098 26.649925 93.835098 28.914352 C 93.835098 31.178776 93.418198 33.178486 92.584305 34.913567 C 91.750404 36.648651 90.5858 38.001476 89.0905 38.971947 C 87.624001 39.912979 85.941803 40.383442 84.043999 40.383442 Z M 81.973602 35.884037 C 82.75 35.884037 83.4114 35.648849 83.957703 35.178288 C 84.532799 34.678387 84.9785 33.913765 85.2948 32.88443 C 85.611099 31.85519 85.769302 30.531799 85.769302 28.914352 C 85.769302 27.296906 85.611099 25.973618 85.2948 24.944275 C 84.9785 23.885605 84.532799 23.120987 83.957703 22.650421 C 83.4114 22.179955 82.75 21.944672 81.973602 21.944672 C 81.168503 21.944672 80.435196 22.253487 79.773796 22.871033 C 79.141197 23.459145 78.638 24.282631 78.264206 25.341301 C 77.919098 26.399971 77.746597 27.590961 77.746597 28.914352 C 77.746597 30.208309 77.919098 31.384624 78.264206 32.443295 C 78.638 33.502064 79.141197 34.340126 79.773796 34.957668 C 80.435196 35.575317 81.168503 35.884037 81.973602 35.884037 Z"></path>
    <path id="path8" fill="#ffffff" stroke="none" d="M 97.6092 27.767475 L 101.664001 27.767475 L 101.664001 27.987988 C 101.664001 29.105534 102.022995 30.325951 102.742004 31.649338 C 103.490005 32.972633 104.439003 34.090176 105.589005 35.001869 C 106.768005 35.884037 107.946999 36.325165 109.125999 36.325165 C 109.987999 36.325165 110.706993 36.089882 111.281998 35.619415 C 111.856995 35.119415 112.274002 34.457764 112.532997 33.63438 C 112.820999 32.781555 112.965004 31.811085 112.965004 30.72298 C 112.965004 29.546658 112.806007 28.561428 112.490005 27.767475 C 112.173996 26.973419 111.742004 26.385307 111.195999 26.002953 C 110.678001 25.591255 110.089005 25.385406 109.428001 25.385406 C 108.939003 25.385406 108.435997 25.48838 107.918007 25.694221 C 107.429001 25.900078 106.968994 26.19413 106.538002 26.576393 L 106.106003 26.973419 L 104.035995 24.150322 L 112.834999 16.518898 L 105.287003 16.518898 C 104.539001 16.518898 103.964005 16.562996 103.561996 16.651199 C 103.188004 16.739403 102.900002 16.901154 102.698997 17.136436 C 102.526001 17.371719 102.440002 17.739311 102.440002 18.239212 L 102.440002 19.73912 L 98.342499 19.73912 L 98.342499 6.858368 L 102.482994 6.858368 L 102.482994 9.063965 L 121.331993 9.063965 L 121.331993 13.210464 L 110.980003 22.738724 C 111.354004 22.591644 111.770996 22.48867 112.231003 22.429901 C 112.691002 22.341698 113.123001 22.297592 113.525002 22.297592 C 115.078003 22.297592 116.473 22.650421 117.709 23.35627 C 118.973999 24.032677 119.966003 25.003151 120.684998 26.26767 C 121.404007 27.50275 121.764 28.929119 121.764 30.546463 C 121.764 32.428631 121.289001 34.119617 120.340004 35.619415 C 119.391006 37.119221 118.025002 38.3102 116.243004 39.192463 C 114.459999 40.045288 112.345993 40.471752 109.902 40.471752 C 108.981995 40.471752 108.061996 40.368778 107.142006 40.16293 C 106.220993 39.957081 105.402 39.677696 104.682999 39.324772 C 104.223 39.177799 103.733994 39.030724 103.217003 38.883644 C 102.728004 38.707226 102.238998 38.56015 101.75 38.442612 L 101.75 41.221603 L 97.6092 41.221603 L 97.6092 27.767475 Z"></path>
    <path id="path9" fill="#ffffff" stroke="none" d="M 124.130005 44.574135 L 127.451004 44.574135 L 127.451004 22.076981 L 124.130005 22.076981 L 124.130005 17.886391 L 134.524994 17.886391 L 134.524994 20.665382 C 135.243988 19.606705 136.121002 18.812752 137.156006 18.283409 C 138.220001 17.72464 139.442001 17.445259 140.821991 17.445259 C 142.69101 17.445259 144.373001 17.915825 145.868988 18.856857 C 147.363998 19.79789 148.529007 21.135948 149.362 22.871033 C 150.195999 24.606117 150.613007 26.620598 150.613007 28.914352 C 150.613007 31.178776 150.181992 33.178486 149.319 34.913567 C 148.485001 36.648651 147.320999 38.001476 145.826004 38.971947 C 144.358994 39.912979 142.69101 40.383442 140.821991 40.383442 C 139.528 40.383442 138.391998 40.133495 137.415009 39.633595 C 136.436996 39.133694 135.602997 38.383743 134.912994 37.383842 L 134.912994 44.794651 L 140.305008 44.794651 L 140.305008 48.764725 L 124.130005 48.764725 L 124.130005 44.574135 Z M 138.751999 35.884037 C 139.498993 35.884037 140.160995 35.648849 140.735992 35.178288 C 141.311005 34.678387 141.742004 33.913765 142.029999 32.88443 C 142.345993 31.85519 142.503998 30.531799 142.503998 28.914352 C 142.503998 27.296906 142.345993 25.973618 142.029999 24.944275 C 141.742004 23.885605 141.311005 23.120987 140.735992 22.650421 C 140.160995 22.179955 139.498993 21.944672 138.751999 21.944672 C 137.917999 21.944672 137.169998 22.253487 136.509003 22.871033 C 135.876007 23.459145 135.386993 24.282631 135.042007 25.341301 C 134.696991 26.399971 134.524994 27.590961 134.524994 28.914352 C 134.524994 30.208309 134.696991 31.384624 135.042007 32.443295 C 135.386993 33.502064 135.876007 34.340126 136.509003 34.957668 C 137.169998 35.575317 137.917999 35.884037 138.751999 35.884037 Z"></path>
    <path id="path10" fill="#ffffff" stroke="none" d="M 152.350998 35.751724 L 155.673004 35.751724 L 155.673004 22.076981 L 152.350998 22.076981 L 152.350998 17.886391 L 162.746002 17.886391 L 162.746002 20.885994 C 163.178009 19.827324 163.79599 19.00383 164.600998 18.415726 C 165.406006 17.827515 166.326004 17.533463 167.362 17.533463 C 167.792999 17.533463 168.29599 17.621674 168.871002 17.79818 C 169.043991 17.856956 169.216003 17.915825 169.389008 17.974594 C 169.561005 18.033363 169.720001 18.092239 169.863007 18.151009 L 169.863007 16.077759 L 173.701996 16.077759 L 173.701996 27.767475 L 169.993011 27.767475 L 169.993011 27.149929 C 169.993011 26.444077 169.763 25.723564 169.303009 24.98838 C 168.871002 24.223763 168.324997 23.591553 167.664001 23.091545 C 167.031006 22.591644 166.456009 22.341698 165.938004 22.341698 C 165.391998 22.341698 164.903 22.576981 164.472 23.047447 C 164.069 23.488571 163.738007 24.135551 163.480011 24.98838 C 163.25 25.811874 163.134995 26.811676 163.134995 27.987988 L 163.134995 35.751724 L 168.397003 35.751724 L 168.397003 39.942413 L 152.350998 39.942413 L 152.350998 35.751724 Z"></path>
    <path id="path11" fill="#ffffff" stroke="none" d="M 176.487 35.751724 L 179.807999 35.751724 L 179.807999 22.076981 L 176.487 22.076981 L 176.487 17.886391 L 187.269989 17.886391 L 187.269989 35.751724 L 190.59201 35.751724 L 190.59201 39.942413 L 176.487 39.942413 L 176.487 35.751724 Z M 178.126007 7.078926 L 188.046997 7.078926 L 183.302002 15.901352 L 182.871002 15.901352 L 178.126007 7.078926 Z"></path>
    <path id="path12" fill="#ffffff" stroke="none" d="M 194.378006 22.076981 L 191.70401 22.076981 L 191.70401 17.886391 L 205.550003 17.886391 L 205.550003 22.076981 L 202.617004 22.076981 L 206.887009 33.766685 L 207.015991 33.766685 L 211.32901 22.076981 L 207.792999 22.076981 L 207.792999 17.886391 L 218.533005 17.886391 L 218.533005 22.076981 L 215.858002 22.076981 L 208.871002 39.942413 L 201.451996 39.942413 L 194.378006 22.076981 Z"></path>
    <path id="path13" fill="#ffffff" stroke="none" d="M 225.26001 40.383442 C 223.016998 40.383442 221.277008 39.839443 220.040985 38.751331 C 218.804001 37.633888 218.186005 36.14875 218.186005 34.296024 C 218.186005 32.325657 218.947998 30.796513 220.472 29.708408 C 221.996002 28.6203 224.253006 27.958652 227.243988 27.72337 C 228.653 27.605728 229.76001 27.414547 230.564987 27.149929 C 231.399002 26.885208 232.003006 26.517624 232.376007 26.04705 C 232.779007 25.54715 232.980011 24.900177 232.980011 24.106117 C 232.980011 23.018112 232.779007 22.238724 232.376007 21.768257 C 231.973999 21.297691 231.369995 21.062416 230.564987 21.062416 C 229.76001 21.062416 228.883011 21.341789 227.934006 21.900566 C 227.013992 22.459343 226.222992 23.150421 225.562012 23.973808 C 224.899994 24.797195 224.526001 25.576591 224.439987 26.311775 L 224.439987 26.664696 L 220.600998 26.664696 L 220.600998 16.430687 L 224.397003 16.430687 L 224.397003 18.327515 C 225.461014 18.209877 226.453003 18.062805 227.373001 17.886391 C 227.918991 17.739311 228.494995 17.636436 229.097992 17.577568 C 229.701996 17.489365 230.335007 17.445259 230.996002 17.445259 C 233.929001 17.445259 236.214996 18.239212 237.854004 19.827324 C 239.492996 21.415337 240.312988 23.635651 240.312988 26.488182 L 240.312988 35.751724 L 243.072998 35.751724 L 243.072998 39.942413 L 233.195999 39.942413 L 233.195999 36.545776 C 232.362015 37.839737 231.268997 38.8102 229.917999 39.457176 C 228.595001 40.074722 227.041992 40.383442 225.26001 40.383442 Z M 228.408005 36.236961 C 229.156006 36.236961 229.888992 35.987007 230.608002 35.487106 C 231.356003 34.957668 231.960007 34.251919 232.419998 33.369659 C 232.908005 32.458065 233.153 31.42873 233.153 30.281849 L 233.153 27.943882 C 232.779007 28.355576 232.305008 28.723175 231.729004 29.046658 C 231.154007 29.340813 230.449997 29.561329 229.615997 29.708408 C 228.437012 29.914253 227.54599 30.325951 226.941986 30.943493 C 226.337982 31.5317 226.036011 32.34042 226.036011 33.369659 C 226.036011 34.222485 226.251999 34.913567 226.683014 35.442905 C 227.113983 35.972343 227.688995 36.236961 228.408005 36.236961 Z"></path>
    <path id="path14" fill="#ffffff" stroke="none" d="M 261.166992 39.457176 C 260.533997 39.692368 259.657013 39.883549 258.535004 40.030621 C 257.932007 40.148262 257.328003 40.236469 256.723999 40.295238 C 256.119995 40.354111 255.515991 40.383442 254.912018 40.383442 C 252.668991 40.383442 250.657013 39.898212 248.873993 38.927849 C 247.090988 37.927944 245.695999 36.560444 244.689987 34.825363 C 243.712006 33.06094 243.222992 31.090569 243.222992 28.914352 C 243.222992 26.708801 243.712006 24.738426 244.689987 23.003342 C 245.695999 21.268257 247.090988 19.915535 248.873993 18.945061 C 250.657013 17.94516 252.668991 17.445259 254.912018 17.445259 C 255.975998 17.445259 257.069 17.548134 258.190002 17.754082 C 259.226013 17.930489 260.074005 18.121674 260.735016 18.327515 L 260.735016 16.430687 L 264.574005 16.430687 L 264.531006 27.282238 L 260.519989 27.282238 L 260.519989 26.929314 C 260.433014 26.164696 260.087982 25.355972 259.484009 24.503151 C 258.881012 23.650322 258.175995 22.929802 257.371002 22.341698 C 256.565979 21.753487 255.832001 21.459435 255.17099 21.459435 C 254.337006 21.459435 253.617996 21.738815 253.014984 22.297592 C 252.411011 22.856361 251.936005 23.69442 251.590988 24.811966 C 251.274994 25.900078 251.116989 27.267471 251.116989 28.914352 C 251.116989 30.531799 251.274994 31.899288 251.590988 33.016735 C 251.936005 34.104843 252.411011 34.928337 253.014984 35.487106 C 253.617996 36.04578 254.337006 36.325165 255.17099 36.325165 C 255.889984 36.325165 256.681 36.04578 257.542999 35.487106 C 258.406006 34.898899 259.153992 34.178387 259.786011 33.325562 C 260.419006 32.472736 260.807007 31.664009 260.950989 30.899387 L 260.950989 30.546463 L 264.962006 30.546463 L 264.962006 41.398113 L 261.166992 41.398113 L 261.166992 39.457176 Z"></path>
    <path id="path15" fill="#ffffff" stroke="none" d="M 268.757019 37.075119 L 272.553009 37.075119 L 272.553009 38.971947 C 272.553009 39.795338 272.841003 40.677601 273.415985 41.618633 C 273.990997 42.589096 274.681 43.39782 275.486023 44.044796 C 276.320007 44.72121 277.067993 45.059368 277.729004 45.059368 C 278.074005 45.059368 278.362 44.941727 278.59198 44.706444 C 278.821991 44.471161 278.937012 44.162441 278.937012 43.780079 L 278.937012 43.735977 C 278.937012 43.471359 278.835999 43.089001 278.63501 42.589096 C 278.462006 42.11853 278.031006 41.148067 277.341003 39.677696 C 277.167999 39.295437 276.96698 38.883644 276.737 38.442612 C 276.536011 38.001476 276.320007 37.530918 276.089996 37.031017 L 268.887024 22.076981 L 266.299011 22.076981 L 266.299011 17.886391 L 279.971985 17.886391 L 279.971985 22.076981 L 277.427002 22.076981 L 281.007019 30.678875 C 281.092987 30.914162 281.194 31.178776 281.309021 31.472832 C 281.424011 31.737549 281.539001 32.016933 281.653992 32.310989 C 281.912994 32.957962 282.100006 33.472637 282.214996 33.854889 C 282.272003 33.590275 282.330017 33.354988 282.387024 33.149143 C 282.445007 32.91386 282.516998 32.66391 282.602997 32.399193 L 286.01001 22.076981 L 282.429993 22.076981 L 282.429993 17.886391 L 293.127014 17.886391 L 293.127014 22.076981 L 290.194 22.076981 L 285.277008 35.09008 C 285.247986 35.148849 285.234009 35.207722 285.234009 35.266491 C 285.234009 35.295925 285.220001 35.340031 285.190979 35.3988 C 284.932007 36.134087 284.744995 36.810394 284.630005 37.42794 C 284.544006 38.045582 284.501007 38.721897 284.501007 39.457176 L 284.501007 40.16293 C 284.501007 42.074429 284.227997 43.706642 283.681 45.059368 C 283.164001 46.412094 282.415985 47.441433 281.437988 48.147182 C 280.460999 48.853031 279.325012 49.205856 278.031006 49.205856 C 277.39801 49.205856 276.751007 49.147083 276.089996 49.029446 C 275.428009 48.941238 274.809998 48.808926 274.235016 48.632416 C 273.602997 48.456005 273.070984 48.23539 272.638977 47.970768 L 272.638977 49.999908 L 268.757019 49.999908 L 268.757019 37.075119 Z"></path>
    <path id="path16" fill="#1b1819" fill-rule="evenodd" stroke="none" d="M 9.374781 22.076683 L 6.87308 22.076683 L 6.87308 17.885986 L 18.346401 17.885986 L 18.346401 22.076683 L 17.138699 22.076683 L 20.114799 34.560349 L 20.2442 34.560349 L 22.487101 26.090858 L 21.193201 22.076683 L 19.4247 22.076683 L 19.4247 17.885986 L 31.5882 17.885986 L 31.5882 22.076683 L 29.604 22.076683 L 32.968399 34.604446 L 33.1409 34.604446 L 36.1171 22.076683 L 33.874199 22.076683 L 33.874199 17.885986 L 43.018303 17.885986 L 43.018303 22.076683 L 40.473499 22.076683 L 35.599499 39.942017 L 27.663101 39.942017 L 24.902599 29.310982 L 22.055799 39.942017 L 14.2056 39.942017 L 9.374781 22.076683 Z M 3.93255 28.27705 C 1.60774 27.177471 0 24.814362 0 22.076683 L 0 17.885986 C 0 14.098412 3.07718 11.027962 6.87308 11.027962 L 18.346401 11.027962 C 18.5278 11.027962 18.7076 11.035049 18.885601 11.04882 C 19.063499 11.035049 19.243299 11.027962 19.4247 11.027962 L 31.5882 11.027962 C 31.9776 11.027962 32.359398 11.060295 32.731201 11.122452 C 33.102898 11.060295 33.484798 11.027962 33.874199 11.027962 L 43.018303 11.027962 C 44.482998 11.027962 45.840702 11.485161 46.955898 12.264244 C 49.5317 11.107384 52.295696 10.586929 55.130199 10.586929 C 56.919098 10.586929 58.684998 10.79438 60.391899 11.246979 L 60.391899 9.063614 C 60.391899 5.276031 63.469097 2.205605 67.264999 2.205605 L 78.134499 2.205605 C 81.930405 2.205605 85.0075 5.276031 85.0075 9.063614 L 85.0075 10.613579 C 87.2696 10.739494 89.448601 11.312637 91.469101 12.356239 L 91.469101 6.858002 C 91.469101 3.070435 94.546196 0 98.342102 0 L 102.482994 0 C 104.479004 0 106.277 0.849319 107.532997 2.205605 L 121.331993 2.205605 C 125.128006 2.205605 128.205002 5.276031 128.205002 9.063614 L 128.205002 11.027962 L 134.524002 11.027962 C 135.131012 11.027962 135.718994 11.106392 136.279007 11.253464 C 137.768005 10.791183 139.298996 10.586929 140.821991 10.586929 C 143.438004 10.586929 145.96701 11.158577 148.293991 12.349457 C 149.431 11.518585 150.834 11.027962 152.350998 11.027962 L 162.746002 11.027962 C 163.188004 11.027962 163.618988 11.069572 164.037994 11.148895 C 164.496994 11.013199 164.964996 10.90683 165.438004 10.829597 C 166.634003 9.824821 168.177002 9.219414 169.863007 9.219414 L 171.595993 9.219414 C 170.980011 7.34874 171.194992 5.280556 172.227997 3.557655 C 173.468994 1.487724 175.709 0.220558 178.126007 0.220558 L 188.04599 0.220558 C 190.464005 0.220558 192.70401 1.487724 193.944992 3.55764 C 195.186005 5.627563 195.246002 8.195854 194.102997 10.32122 L 193.722992 11.027962 L 205.548996 11.027962 C 205.931 11.027962 206.306 11.05909 206.67099 11.118858 C 207.036011 11.05909 207.410004 11.027962 207.791992 11.027962 L 216.366989 11.027962 C 217.534012 10.115967 219.003998 9.572304 220.600998 9.572304 L 224.397003 9.572304 C 225.835007 9.572304 227.17099 10.013298 228.274002 10.767235 C 229.177002 10.643906 230.087006 10.586929 230.996002 10.586929 C 235.187988 10.586929 239.38501 11.751472 242.641998 14.906837 C 242.644989 14.909233 242.647003 14.911621 242.649994 14.914124 C 243.537994 14.171753 244.503998 13.514099 245.543991 12.944954 C 248.441986 11.328606 251.621002 10.586929 254.912018 10.586929 C 255.605011 10.586929 256.299011 10.617767 256.992004 10.677834 C 258.069 9.978569 259.354004 9.572304 260.735016 9.572304 L 264.574005 9.572304 C 266.115997 9.572304 267.605011 10.089729 268.808014 11.027962 L 279.971985 11.027962 C 280.390991 11.027962 280.802002 11.065483 281.200989 11.137421 C 281.600006 11.065483 282.01001 11.027962 282.429993 11.027962 L 293.127014 11.027962 C 296.923004 11.027962 300 14.098412 300 17.885986 L 300 22.076683 C 300 25.197815 297.910004 27.832031 295.050995 28.662304 L 291.852997 37.125801 C 291.773987 37.413872 291.687988 37.662125 291.610016 37.861588 C 291.514984 38.146557 291.455017 38.369968 291.416992 38.536701 C 291.391998 38.773281 291.372986 39.077118 291.372986 39.456783 L 291.372986 40.162529 C 291.372986 42.672512 291.022003 45.202454 290.080017 47.563065 C 289.181 49.885662 287.712006 52.082134 285.46698 53.703167 C 283.230011 55.317627 280.661011 56.06358 278.031006 56.06358 C 277.367981 56.06358 276.709015 56.025066 276.056 55.951229 C 275.049011 56.527863 273.882996 56.85754 272.638977 56.85754 L 268.757019 56.85754 C 264.960999 56.85754 261.884003 53.787083 261.884003 49.999512 L 261.884003 48.255745 L 261.165985 48.255745 C 259.766998 48.255745 258.464996 47.83836 257.378998 47.121639 C 256.558014 47.20116 255.736008 47.241173 254.912018 47.241173 C 252.144989 47.241173 249.453003 46.727501 246.937012 45.614746 C 245.836014 46.362804 244.505005 46.800041 243.072998 46.800041 L 233.195999 46.800041 C 232.395996 46.800041 231.628998 46.663841 230.915985 46.413593 C 229.072998 46.997009 227.162018 47.241173 225.259003 47.241173 C 221.949997 47.241173 218.376999 46.431553 215.493988 43.894428 C 215.470993 43.874374 215.449005 43.854218 215.425995 43.833862 C 215.23201 43.658447 215.044998 43.479141 214.865997 43.296043 C 213.662994 45.438534 211.380005 46.800041 208.871002 46.800041 L 201.451996 46.800041 C 199.292999 46.800041 197.302002 45.792755 196.020996 44.146675 C 194.764008 45.761227 192.798996 46.800041 190.591003 46.800041 L 176.487 46.800041 C 174.975006 46.800041 173.576996 46.312714 172.442001 45.487026 C 171.306992 46.312714 169.908997 46.800041 168.395996 46.800041 L 152.350998 46.800041 C 150.828003 46.800041 149.42099 46.305828 148.281998 45.469265 C 147.917999 45.657455 147.550003 45.830074 147.177002 45.987431 L 147.177002 48.764427 C 147.177002 52.551998 144.100006 55.622456 140.304001 55.622456 L 124.129005 55.622456 C 120.334 55.622456 117.256004 52.551998 117.256004 48.764427 L 117.256004 46.177212 C 114.907997 46.986332 112.423996 47.32938 109.902 47.32938 C 108.472 47.32938 107.056007 47.16993 105.663002 46.860012 C 104.552002 47.628819 103.204002 48.079231 101.75 48.079231 L 97.608902 48.079231 C 95.305603 48.079231 93.266899 46.948719 92.019798 45.213528 C 89.551498 46.600384 86.837799 47.241173 84.043594 47.241173 C 82.531097 47.241173 80.995804 47.046001 79.496994 46.586712 C 78.951004 46.726006 78.378899 46.800041 77.789398 46.800041 L 70.715599 46.800041 C 70.277397 46.800041 69.848801 46.759132 69.433304 46.680904 C 68.243698 47.66444 66.7164 48.255745 65.050705 48.255745 L 61.211903 48.255745 C 59.791496 48.255745 58.471699 47.825787 57.376099 47.089207 C 56.558899 47.191582 55.737598 47.241173 54.9146 47.241173 C 51.693703 47.241173 48.57 46.547596 45.707401 45.011772 C 44.351097 44.284172 43.119102 43.404503 42.0229 42.382454 C 41.017899 45.020157 38.473598 46.800041 35.599499 46.800041 L 27.663101 46.800041 C 26.672501 46.800041 25.7216 46.588707 24.8594 46.203953 C 23.997099 46.588707 23.046101 46.800041 22.055799 46.800041 L 14.2056 46.800041 C 11.099299 46.800041 8.379061 44.721012 7.56986 41.728489 L 3.93255 28.27705 Z M 44.3335 34.037693 C 44.479801 34.367863 44.642403 34.68906 44.821499 35.001472 C 44.888901 35.115719 44.957901 35.22818 45.028698 35.339031 C 45.176201 35.570023 45.3311 35.793636 45.493202 36.009762 C 45.5285 36.056751 45.564003 36.103451 45.599998 36.149651 C 46.503101 37.312893 47.623802 38.253525 48.9622 38.97155 C 49.359798 39.184875 49.769199 39.373962 50.190399 39.538902 C 51.465004 40.038101 52.847801 40.315895 54.338799 40.372368 C 54.528999 40.379555 54.720898 40.383144 54.9146 40.383144 C 55.001099 40.383144 55.087299 40.382347 55.173298 40.38065 C 55.715996 40.370274 56.247997 40.326969 56.769299 40.250835 C 57.246899 40.206432 57.7164 40.153549 58.177696 40.092384 C 58.327301 40.072628 58.476097 40.051872 58.624001 40.030224 C 58.98 39.971149 59.313499 39.90889 59.6245 39.843231 C 59.648296 39.838139 59.671997 39.833157 59.695503 39.828068 C 60.283398 39.701649 60.788799 39.563145 61.211903 39.412682 L 61.211903 41.397717 L 65.050705 41.397717 L 65.050705 32.266487 L 60.694298 32.266487 L 60.694298 32.5312 C 60.690399 32.545769 60.686199 32.560337 60.681896 32.575008 C 60.528999 33.093769 60.145 33.681973 59.529701 34.339828 C 59.516304 34.354889 59.5028 34.369862 59.489204 34.384926 C 59.4716 34.404285 59.453999 34.423546 59.436298 34.442802 C 59.0597 34.851006 58.640198 35.226082 58.177696 35.568325 C 58.115601 35.614227 58.052803 35.659531 57.989098 35.704231 C 57.9636 35.722187 57.938 35.739952 57.9123 35.757717 C 57.738201 35.877647 57.558502 35.993092 57.3731 36.104248 C 57.046001 36.307404 56.730797 36.46925 56.427399 36.589787 C 56.365101 36.614529 56.303398 36.637581 56.242199 36.658836 C 55.867199 36.789043 55.510902 36.854202 55.173298 36.854202 C 55.085899 36.854202 54.999596 36.850712 54.9146 36.843925 C 54.272198 36.792233 53.697102 36.545776 53.189201 36.104248 C 52.724903 35.700638 52.326202 35.134087 51.993103 34.404587 C 51.913597 34.230469 51.837902 34.047169 51.7659 33.854599 C 51.759804 33.837132 51.753899 33.819569 51.747902 33.80201 C 51.595001 33.350201 51.465199 32.854092 51.358501 32.313583 C 51.258198 31.805195 51.178299 31.2575 51.1189 30.670593 C 51.103001 30.514332 51.088699 30.355186 51.075699 30.193241 L 66.6035 30.193241 C 66.632301 29.957962 66.646599 29.737446 66.646599 29.531593 C 66.6754 29.29631 66.689804 29.075794 66.689804 28.86985 C 66.683395 28.370148 66.654701 27.884018 66.6035 27.411461 C 66.532204 26.752602 66.417297 26.120094 66.258804 25.51413 C 66.057701 24.745209 65.7864 24.018906 65.445099 23.335213 C 65.374199 23.19323 65.300201 23.053131 65.223297 22.914742 C 65.162201 22.803085 65.099503 22.693024 65.034996 22.584663 C 64.849701 22.272743 64.650497 21.97451 64.4375 21.689827 C 64.423996 21.671768 64.4105 21.653908 64.396996 21.635948 C 64.221397 21.404655 64.036606 21.182343 63.842499 20.969215 C 63.090099 20.14283 62.198902 19.453247 61.1688 18.900566 C 60.7537 18.667175 60.321999 18.461723 59.873699 18.284409 C 58.458397 17.724739 56.877197 17.444862 55.130199 17.444862 C 55.086998 17.444862 55.0438 17.445061 55.000801 17.445366 C 53.230202 17.459526 51.614204 17.763458 50.152901 18.35746 C 50.1082 18.375511 50.063698 18.393974 50.019299 18.412636 C 49.976501 18.430695 49.933899 18.448952 49.891399 18.467514 C 49.589302 18.599129 49.2939 18.743507 49.005398 18.900566 C 47.665302 19.630058 46.544502 20.583755 45.643101 21.761871 C 45.6064 21.809868 45.57 21.858261 45.534 21.907051 C 45.492599 21.963127 45.451698 22.019608 45.411301 22.076683 C 45.246101 22.309669 45.089001 22.550842 44.939899 22.800186 C 44.899799 22.867241 44.860401 22.934792 44.821499 23.003044 C 44.780701 23.076584 44.740799 23.15062 44.701698 23.225151 C 43.826302 24.894485 43.377602 26.795013 43.355801 28.926525 C 43.355202 28.981007 43.355 29.035686 43.355 29.090466 C 43.355 30.916153 43.681099 32.565231 44.3335 34.037693 Z M 51.354401 25.632072 C 51.252602 26.215881 51.174099 26.85408 51.1189 27.546562 L 58.969002 27.546562 C 58.904499 26.873932 58.819801 26.257492 58.714802 25.69722 C 58.702198 25.629768 58.689301 25.563118 58.676003 25.497261 C 58.577698 25.007835 58.463203 24.563515 58.332397 24.164192 C 58.315601 24.112701 58.298401 24.062012 58.280998 24.012024 C 58.266102 23.969223 58.250999 23.92691 58.235798 23.885208 C 58.167103 23.692024 58.094398 23.508636 58.0177 23.335213 C 57.709198 22.637749 57.336201 22.100624 56.898701 21.723755 C 56.385303 21.281624 55.795799 21.047241 55.130199 21.0205 C 55.087402 21.018806 55.0443 21.018005 55.000801 21.018005 C 54.281898 21.018005 53.6493 21.267952 53.103004 21.76786 C 52.674702 22.136749 52.308197 22.659195 52.003601 23.335213 C 51.919701 23.521606 51.840401 23.719673 51.7659 23.929405 C 51.764503 23.933601 51.7631 23.93779 51.7617 23.942085 C 51.599201 24.442978 51.463501 25.006348 51.354401 25.632072 Z M 70.715599 39.942017 L 77.789398 39.942017 L 77.789398 37.118824 C 78.508301 38.206928 79.3853 39.030319 80.420502 39.589088 C 80.684097 39.723896 80.9589 39.841537 81.244896 39.942017 C 81.480103 40.024635 81.7229 40.09568 81.973297 40.155148 C 82.6138 40.307114 83.304001 40.383144 84.043594 40.383144 C 84.2481 40.383144 84.449997 40.377659 84.649498 40.366779 C 85.788498 40.304417 86.846001 40.063946 87.821701 39.645264 C 87.830498 39.641575 87.839302 39.637787 87.848 39.633991 C 88.278 39.4478 88.692001 39.227085 89.090195 38.97155 C 89.658195 38.602959 90.178398 38.179089 90.651001 37.700138 C 90.679398 37.671307 90.707703 37.642269 90.735794 37.613037 C 91.469803 36.84951 92.085899 35.949593 92.5839 34.913269 C 93.417801 33.178181 93.834801 31.178474 93.834801 28.914051 C 93.834801 28.523808 93.822403 28.141552 93.7976 27.767075 C 93.712296 26.476212 93.479797 25.278748 93.100296 24.174667 C 92.965103 23.781334 92.811203 23.399872 92.638702 23.030289 C 92.620598 22.991669 92.602402 22.953156 92.5839 22.914742 C 92.310303 22.34549 92.001099 21.81884 91.656204 21.335007 C 91.3647 20.926003 91.047699 20.54744 90.7052 20.199501 C 90.2183 19.704796 89.68 19.271744 89.090195 18.900566 C 88.675301 18.631355 88.246101 18.39946 87.802505 18.204887 C 87.755295 18.184235 87.707901 18.163879 87.660301 18.14402 C 86.826202 17.795586 85.941902 17.57737 85.0075 17.489464 C 84.692001 17.459732 84.370697 17.444862 84.043594 17.444862 C 83.309998 17.444862 82.619896 17.528976 81.973297 17.697006 C 81.5047 17.81884 81.059006 17.984772 80.6362 18.194817 C 79.658501 18.694717 78.8246 19.429901 78.134499 20.400368 L 78.134499 9.063614 L 67.264999 9.063614 L 67.264999 13.254265 L 70.715599 13.254265 L 70.715599 39.942017 Z M 77.845398 27.252804 C 77.779305 27.781239 77.7463 28.334923 77.7463 28.914051 C 77.7463 29.377934 77.768402 29.826645 77.812798 30.260296 C 77.892197 31.036293 78.042496 31.76379 78.263901 32.442997 C 78.637703 33.501671 79.1409 34.339828 79.773499 34.957375 C 79.966904 35.13797 80.166496 35.292137 80.3722 35.419956 C 80.869896 35.729073 81.403603 35.883732 81.973297 35.883732 C 82.095901 35.883732 82.215698 35.87785 82.332596 35.86607 C 82.370804 35.862282 82.4086 35.857788 82.446098 35.852703 C 83.021698 35.774773 83.525497 35.54987 83.957397 35.177887 C 83.986496 35.152641 84.015198 35.126698 84.043594 35.100056 C 84.493103 34.678783 84.859802 34.088379 85.1437 33.328655 C 85.196899 33.186363 85.247101 33.038193 85.294502 32.884125 C 85.610794 31.85479 85.768997 30.531494 85.768997 28.914051 C 85.768997 27.296612 85.610794 25.973213 85.294502 24.943985 C 85.253197 24.805786 85.209702 24.672577 85.164001 24.544456 C 84.877304 23.740326 84.503899 23.133461 84.043594 22.723755 C 84.015198 22.698418 83.986496 22.673866 83.957397 22.650124 C 83.561699 22.309364 83.105797 22.092049 82.5895 21.998055 C 82.569298 21.994362 82.548904 21.990868 82.528496 21.987579 C 82.350403 21.95874 82.165398 21.944267 81.973297 21.944267 C 81.530602 21.944267 81.109695 22.037659 80.710495 22.224258 C 80.383598 22.377121 80.071304 22.592644 79.773499 22.870636 C 79.1409 23.458839 78.637703 24.282234 78.263901 25.340904 C 78.069801 25.936394 77.930298 26.5737 77.845398 27.252804 Z M 84.807701 27.468029 C 84.8078 27.468029 84.806702 27.47023 84.804398 27.474518 C 84.806503 27.47002 84.807701 27.467926 84.807701 27.468029 Z M 98.342102 19.738716 L 102.440002 19.738716 L 102.440002 18.238914 C 102.440002 17.739014 102.526001 17.371315 102.698997 17.136139 C 102.900002 16.900856 103.186996 16.739113 103.560997 16.650902 C 103.951004 16.565491 104.501999 16.521393 105.215004 16.518692 C 105.238998 16.518593 105.263 16.518494 105.287003 16.518494 L 112.834999 16.518494 L 104.035995 24.149925 L 106.106003 26.973114 L 106.537003 26.576088 C 106.923996 26.233345 107.334 25.961548 107.767006 25.760681 C 107.817001 25.737434 107.867004 25.715187 107.918007 25.693832 C 108.006996 25.658211 108.095993 25.625679 108.184998 25.596245 C 108.608994 25.455452 109.022995 25.38501 109.427002 25.38501 C 110.089005 25.38501 110.678001 25.590958 111.195999 26.002655 C 111.404007 26.148132 111.594994 26.32354 111.769997 26.528793 C 112.054001 26.862663 112.293991 27.275356 112.490005 27.767075 C 112.671997 28.224564 112.802002 28.745422 112.879005 29.329742 C 112.935997 29.759693 112.964005 30.223972 112.964005 30.722576 C 112.964005 31.651337 112.858994 32.494381 112.650002 33.251717 C 112.613998 33.381737 112.574997 33.509155 112.532997 33.633976 C 112.274002 34.457474 111.856995 35.119118 111.281998 35.619019 C 110.889 35.94051 110.429001 36.152245 109.902 36.254025 C 109.656998 36.301216 109.399002 36.324863 109.125 36.324863 C 108.761002 36.324863 108.395996 36.282661 108.031998 36.198341 C 107.527 36.081505 107.021996 35.883732 106.517006 35.60495 C 106.337997 35.506363 106.159996 35.3978 105.981003 35.279068 C 105.849998 35.191956 105.718994 35.099457 105.587997 35.001472 C 105.334 34.799618 105.089005 34.587681 104.854004 34.365574 C 104.762001 34.278263 104.670998 34.189362 104.581009 34.098862 C 104.547997 34.065132 104.514999 34.031204 104.481995 33.996986 C 104.331993 33.841022 104.185997 33.680481 104.044998 33.515438 C 103.745995 33.166706 103.467003 32.797718 103.207993 32.408569 C 103.045998 32.165806 102.892006 31.915161 102.745995 31.65662 C 102.744995 31.654026 102.743004 31.651535 102.742004 31.648941 C 102.427002 31.069016 102.181 30.50885 102.003998 29.968338 C 101.777 29.275661 101.663002 28.615406 101.663002 27.98769 L 101.663002 27.767075 L 97.608902 27.767075 L 97.608902 41.221302 L 101.75 41.221302 L 101.75 38.442207 C 102.050003 38.51445 102.349998 38.597767 102.650002 38.692265 C 102.693993 38.706131 102.738998 38.7202 102.782997 38.73457 C 102.927002 38.781563 103.071999 38.831161 103.216003 38.883343 C 103.658997 39.009163 104.081009 39.134987 104.481995 39.26091 C 104.548996 39.282063 104.616005 39.303219 104.682999 39.324474 C 105.402 39.677299 106.220993 39.956684 107.141006 40.162529 C 107.634995 40.273087 108.129005 40.353909 108.623001 40.405098 C 108.790001 40.422459 108.957993 40.436428 109.125 40.446907 C 109.383995 40.463169 109.643005 40.471352 109.902 40.471352 C 111.681007 40.471352 113.283997 40.245548 114.712997 39.793839 C 114.768997 39.776081 114.823997 39.758018 114.880005 39.739662 C 115.354004 39.582508 115.807999 39.400002 116.242004 39.192062 C 116.889999 38.871368 117.483994 38.509762 118.021996 38.107349 C 118.962997 37.402996 119.736 36.573521 120.340004 35.619019 C 120.422997 35.488007 120.501999 35.355595 120.578003 35.221687 C 121.368004 33.822369 121.763 32.263893 121.763 30.546165 C 121.763 29.799606 121.686996 29.093761 121.532997 28.428619 C 121.355003 27.652725 121.071999 26.932312 120.684998 26.267273 C 120.650002 26.205505 120.613998 26.144447 120.578003 26.084076 C 120.205002 25.46653 119.764 24.922424 119.255005 24.451759 C 118.889 24.112808 118.487 23.811966 118.050003 23.549248 C 117.938004 23.482292 117.824997 23.417831 117.709 23.355873 C 117.587997 23.286919 117.465004 23.221268 117.342003 23.159004 C 116.972 22.973412 116.589005 22.817848 116.193008 22.69223 C 115.544998 22.486671 114.861 22.361351 114.141006 22.316254 C 114.027 22.309174 113.913002 22.303986 113.796997 22.300888 C 113.706993 22.298393 113.616005 22.297195 113.525002 22.297195 C 113.304001 22.297195 113.072998 22.31057 112.834999 22.337212 C 112.639 22.359062 112.438004 22.389793 112.231003 22.429504 C 111.940002 22.466721 111.667007 22.5214 111.410995 22.593742 C 111.262001 22.635948 111.118004 22.684143 110.980003 22.738327 L 121.331993 13.210167 L 121.331993 9.063614 L 102.482994 9.063614 L 102.482994 6.858002 L 98.342102 6.858002 L 98.342102 19.738716 Z M 124.129005 22.076683 L 127.451004 22.076683 L 127.451004 44.573738 L 124.129005 44.573738 L 124.129005 48.764427 L 140.304001 48.764427 L 140.304001 44.794353 L 134.912994 44.794353 L 134.912994 37.383537 C 135.04599 37.577213 135.184998 37.761406 135.330002 37.936325 C 135.931 38.664524 136.626007 39.230076 137.414001 39.633194 C 137.831009 39.84642 138.277008 40.014156 138.751007 40.13649 C 139.238998 40.262012 139.756012 40.339642 140.304001 40.369377 C 140.473999 40.378555 140.645996 40.383144 140.821991 40.383144 C 141.149002 40.383144 141.470993 40.368679 141.785995 40.33984 C 142.727997 40.253433 143.615005 40.038006 144.445999 39.693462 C 144.503006 39.670013 144.55899 39.645966 144.615005 39.621319 C 144.658997 39.601868 144.70401 39.582111 144.746994 39.561855 C 144.996002 39.447605 145.240005 39.321476 145.477997 39.183384 C 145.595001 39.115631 145.710999 39.045082 145.824997 38.97155 C 146.425003 38.582104 146.972 38.130997 147.466003 37.61842 C 147.996002 37.067234 148.466003 36.444901 148.873001 35.751328 C 149.031006 35.482716 149.180008 35.203331 149.319 34.913269 C 150.156006 33.229664 150.587006 31.296818 150.612 29.114807 C 150.613007 29.048157 150.613007 28.981201 150.613007 28.914051 C 150.613007 28.846798 150.613007 28.77985 150.612 28.713196 C 150.587997 26.502449 150.171997 24.554932 149.362 22.870636 C 149.230011 22.596039 149.089996 22.331421 148.94101 22.076683 C 148.5 21.319839 147.985992 20.650917 147.397995 20.069695 C 146.93399 19.610504 146.423996 19.206093 145.868011 18.856461 C 145.740005 18.775436 145.610001 18.697906 145.477997 18.623871 C 145.144989 18.43618 144.803009 18.270943 144.451996 18.128159 C 143.494995 17.739014 142.472992 17.516106 141.384003 17.459427 C 141.199005 17.449745 141.011002 17.444862 140.821991 17.444862 C 140.087006 17.444862 139.397003 17.524086 138.751007 17.682533 C 138.518005 17.739914 138.290009 17.807762 138.068008 17.885986 C 137.751999 17.997246 137.447998 18.129654 137.156006 18.28302 C 136.119995 18.812355 135.243011 19.606407 134.524002 20.665077 L 134.524002 17.885986 L 124.129005 17.885986 L 124.129005 22.076683 Z M 134.621994 30.531097 C 134.707001 31.206116 134.847 31.843418 135.042007 32.442997 C 135.386993 33.501671 135.876007 34.339828 136.509003 34.957375 C 136.815002 35.243538 137.139999 35.463356 137.483002 35.616924 C 137.881012 35.794731 138.304001 35.883732 138.751007 35.883732 C 138.964005 35.883732 139.17099 35.864574 139.369995 35.826363 C 139.868988 35.730572 140.324005 35.514347 140.735992 35.177887 C 140.764999 35.152641 140.792999 35.126595 140.821991 35.099957 C 141.270996 34.677788 141.628006 34.085587 141.893005 33.32336 C 141.94101 33.182674 141.987 33.036293 142.029999 32.884125 C 142.345993 31.85479 142.503998 30.531494 142.503998 28.914051 C 142.503998 27.296612 142.345993 25.973213 142.029999 24.943985 C 141.987 24.787422 141.94101 24.637352 141.893005 24.493668 C 141.628006 23.714783 141.270996 23.124878 140.821991 22.723862 C 140.792999 22.698517 140.764999 22.673973 140.735992 22.650124 C 140.25 22.253189 139.70401 22.023697 139.095993 21.961533 C 139.078003 21.95974 139.059998 21.958038 139.042007 21.956543 C 138.946991 21.948364 138.850006 21.944267 138.751007 21.944267 C 138.160004 21.944267 137.610992 22.099831 137.106995 22.410744 C 136.899994 22.537964 136.701004 22.69133 136.509003 22.870636 C 135.876007 23.458839 135.386993 24.282234 135.042007 25.340904 C 134.821991 26.014725 134.673004 26.742226 134.593002 27.523212 C 134.546997 27.969326 134.524002 28.432907 134.524002 28.914051 C 134.524002 29.475224 134.556992 30.014236 134.621994 30.531097 Z M 152.350998 39.942017 L 168.395996 39.942017 L 168.395996 35.751328 L 163.134003 35.751328 L 163.134003 27.98769 C 163.134003 27.913452 163.134995 27.839912 163.136002 27.767075 C 163.136002 27.755898 163.136002 27.744625 163.136002 27.733444 C 163.136993 27.667294 163.138 27.601837 163.139999 27.536976 C 163.143997 27.405468 163.149002 27.276253 163.154999 27.149536 C 163.197998 26.328941 163.306 25.608414 163.479004 24.988083 C 163.738007 24.135254 164.069 23.488274 164.470993 23.04715 C 164.903 22.576576 165.391998 22.341301 165.938004 22.341301 C 166.218002 22.341301 166.514999 22.414536 166.82901 22.560913 C 166.942001 22.613899 167.057999 22.676361 167.175995 22.748505 C 167.222992 22.777138 167.269989 22.807373 167.317001 22.839005 C 167.332001 22.848785 167.347 22.858566 167.360992 22.868637 C 167.45401 22.931602 167.546997 23.000351 167.641998 23.074692 C 167.649002 23.080177 167.656006 23.085663 167.662994 23.091248 C 167.707001 23.123978 167.75 23.157402 167.792007 23.19133 C 168.087997 23.428413 168.360001 23.693428 168.608002 23.986183 C 168.664001 24.051636 168.718002 24.118492 168.770996 24.186745 C 168.964005 24.434799 169.139999 24.701111 169.300995 24.985786 C 169.300995 24.98658 169.302002 24.987282 169.302002 24.988083 C 169.684998 25.600342 169.908997 26.202408 169.972992 26.794312 C 169.979004 26.847595 169.983002 26.900871 169.987 26.954063 C 169.988998 26.994568 169.990997 27.035084 169.992004 27.075596 C 169.992004 27.100243 169.992004 27.124882 169.992004 27.149536 L 169.992004 27.767075 L 173.701996 27.767075 L 173.701996 16.077461 L 169.863007 16.077461 L 169.863007 18.150711 C 169.785995 18.11908 169.705002 18.087547 169.618988 18.056023 C 169.617004 18.055321 169.615997 18.054718 169.613998 18.054024 C 169.542007 18.027481 169.46701 18.000839 169.389008 17.97419 L 168.871002 17.797783 C 168.29599 17.621376 167.792999 17.533066 167.360992 17.533066 C 167.180008 17.533066 167.003006 17.542145 166.82901 17.560104 C 166.520996 17.591942 166.223999 17.651901 165.938004 17.740112 C 165.800995 17.782318 165.667007 17.83091 165.535004 17.885986 C 165.354004 17.961929 165.177002 18.050224 165.005005 18.150711 C 164.867004 18.231033 164.731995 18.319237 164.600998 18.415321 C 163.79599 19.003532 163.177002 19.826927 162.746002 20.885597 L 162.746002 17.885986 L 152.350998 17.885986 L 152.350998 22.076683 L 155.671997 22.076683 L 155.671997 35.751328 L 152.350998 35.751328 L 152.350998 39.942017 Z M 176.487 22.076683 L 179.807999 22.076683 L 179.807999 35.751328 L 176.487 35.751328 L 176.487 39.942017 L 190.591003 39.942017 L 190.591003 35.751328 L 187.269989 35.751328 L 187.269989 17.885986 L 176.487 17.885986 L 176.487 22.076683 Z M 182.871002 15.900955 L 183.302002 15.900955 L 188.04599 7.078568 L 178.126007 7.078568 L 182.871002 15.900955 Z M 191.70401 17.885986 L 191.70401 22.076683 L 194.378006 22.076683 L 201.451996 39.942017 L 208.871002 39.942017 L 215.858002 22.076683 L 218.532013 22.076683 L 218.532013 17.885986 L 207.791992 17.885986 L 207.791992 22.076683 L 211.32901 22.076683 L 207.015991 33.766293 L 206.886017 33.766293 L 202.615997 22.076683 L 205.548996 22.076683 L 205.548996 17.885986 L 191.70401 17.885986 Z M 220.600998 16.43029 L 220.600998 26.664299 L 224.439987 26.664299 L 224.439987 26.311371 C 224.483002 25.943382 224.597992 25.564308 224.785004 25.174171 C 224.873001 24.991768 224.975998 24.806976 225.095001 24.619789 C 225.230011 24.407455 225.386017 24.192032 225.561005 23.973511 C 225.641998 23.872932 225.725006 23.774254 225.809006 23.677658 C 225.949997 23.517113 226.095993 23.361954 226.246994 23.21228 C 226.431 23.030777 226.621994 22.857269 226.820999 22.691727 C 226.82901 22.685448 226.837006 22.679153 226.843994 22.672768 C 227.04599 22.506233 227.256012 22.347878 227.473999 22.197617 C 227.480011 22.193222 227.487015 22.188828 227.492996 22.184448 C 227.505005 22.176361 227.516998 22.168381 227.529007 22.160294 C 227.661011 22.070595 227.79599 21.983986 227.934006 21.900169 C 227.998001 21.86245 228.061005 21.826027 228.125 21.790802 C 228.213989 21.741318 228.302002 21.69442 228.389984 21.650017 C 228.493988 21.597336 228.597992 21.548241 228.699997 21.502541 C 228.718994 21.494164 228.737991 21.485985 228.756012 21.477798 C 228.993988 21.374519 229.227005 21.290504 229.455002 21.225746 C 229.512985 21.209389 229.569992 21.194221 229.626999 21.180351 C 229.949997 21.101524 230.262009 21.062111 230.564987 21.062111 C 230.714996 21.062111 230.859009 21.07029 230.996002 21.086861 C 231.237015 21.115891 231.455002 21.17057 231.652008 21.250893 C 231.940994 21.368439 232.182007 21.540756 232.376007 21.76786 C 232.779007 22.238426 232.980011 23.017708 232.980011 24.10582 C 232.980011 24.296898 232.967987 24.4795 232.944992 24.653618 C 232.871002 25.202812 232.682007 25.667084 232.376007 26.046761 C 232.201996 26.265373 231.979004 26.461739 231.706009 26.635963 C 231.584015 26.713783 231.451996 26.787224 231.310013 26.856277 C 231.220993 26.899376 231.128998 26.940887 231.032013 26.980598 C 231.007004 26.990883 230.98201 27.000961 230.956009 27.011032 C 230.915985 27.0271 230.873993 27.042763 230.832001 27.058231 C 230.798004 27.070801 230.762985 27.083275 230.727005 27.095551 C 230.699005 27.105228 230.67099 27.114712 230.64299 27.124092 C 230.616989 27.132664 230.590988 27.141148 230.564987 27.149536 C 230.333008 27.225563 230.076996 27.295612 229.794998 27.35957 C 229.61499 27.400478 229.425003 27.438999 229.223999 27.474918 C 229.222992 27.475113 229.222 27.475418 229.220001 27.475613 C 229.113983 27.494675 229.005005 27.513031 228.891998 27.530594 C 228.399002 27.608322 227.848999 27.672482 227.242996 27.722969 C 226.223999 27.803196 225.288986 27.933006 224.439987 28.112415 C 224.365997 28.128078 224.291992 28.144146 224.218994 28.160606 C 224.182007 28.168888 224.145996 28.177269 224.109009 28.185753 C 222.687988 28.516624 221.51799 28.99398 220.600998 29.617901 C 220.557007 29.647541 220.513992 29.67767 220.472 29.708012 C 220.362991 29.785442 220.258011 29.865162 220.158005 29.947086 C 219.923996 30.136868 219.711014 30.338718 219.518997 30.552555 C 218.871994 31.273167 218.461014 32.129982 218.284012 33.123001 C 218.217987 33.494781 218.185013 33.885723 218.185013 34.295723 C 218.185013 34.510651 218.194 34.720589 218.210007 34.92564 C 218.337006 36.488007 218.946991 37.763103 220.039993 38.751034 C 220.373001 39.043488 220.740997 39.296631 221.145996 39.510563 C 221.251999 39.566441 221.361008 39.619625 221.472 39.670212 C 222.513992 40.14547 223.777008 40.383144 225.259003 40.383144 C 225.626999 40.383144 225.986008 40.369976 226.334015 40.343632 C 227.069 40.288155 227.76001 40.174103 228.408005 40.001488 C 228.480011 39.982426 228.550995 39.96257 228.621002 39.942017 C 229.076004 39.809906 229.508011 39.648163 229.917999 39.456783 C 230.792999 39.037701 231.560013 38.482822 232.217987 37.792343 C 232.223999 37.786453 232.229004 37.780663 232.235016 37.77478 C 232.586014 37.403889 232.907013 36.994099 233.195999 36.545376 L 233.195999 39.942017 L 243.072998 39.942017 L 243.072998 35.751328 L 240.312988 35.751328 L 240.312988 26.487885 C 240.312988 25.202316 240.145996 24.045052 239.812988 23.016312 C 239.483002 21.994957 238.987991 21.100121 238.32901 20.331917 C 238.179001 20.156998 238.020996 19.98867 237.854004 19.826927 C 237.341995 19.330917 236.766998 18.912338 236.128998 18.571281 C 234.787994 17.854561 233.167999 17.479881 231.269989 17.447258 C 231.179001 17.445656 231.087982 17.444862 230.996002 17.444862 C 230.850998 17.444862 230.707001 17.447052 230.564987 17.451248 C 230.058014 17.466408 229.569 17.508324 229.097992 17.577271 C 228.531006 17.632454 227.98999 17.72644 227.473999 17.859344 C 227.439987 17.868027 227.406006 17.877007 227.373001 17.885986 C 226.845993 17.987068 226.29599 18.078468 225.722 18.160187 C 225.699997 18.163185 225.679001 18.166176 225.658005 18.169167 C 225.574005 18.180939 225.48999 18.19252 225.404999 18.203888 C 225.076996 18.248093 224.73999 18.289101 224.397003 18.327126 L 224.397003 16.43029 L 220.600998 16.43029 Z M 243.222992 28.894989 C 243.223999 28.058731 243.29599 27.256393 243.437012 26.487885 C 243.667999 25.236435 244.086014 24.07489 244.689987 23.003044 C 244.860016 22.709587 245.040985 22.427116 245.233002 22.155602 C 245.565994 21.685738 245.933014 21.248505 246.332001 20.844086 C 247.066986 20.10022 247.913986 19.467117 248.873001 18.944664 C 249.100998 18.817345 249.331009 18.698105 249.565994 18.586952 C 250.881012 17.96402 252.312988 17.595932 253.862015 17.482674 C 254.206009 17.457436 254.556 17.444862 254.912018 17.444862 C 254.998001 17.444862 255.084015 17.445557 255.17099 17.44696 C 255.994995 17.459732 256.837006 17.533867 257.695984 17.669266 C 257.860016 17.695213 258.024994 17.723343 258.190002 17.753677 C 258.637024 17.829811 259.048004 17.908638 259.424988 17.990158 C 259.777008 18.066399 260.098999 18.14492 260.389984 18.225845 C 260.51001 18.259171 260.625 18.292999 260.735016 18.327126 L 260.735016 16.43029 L 264.574005 16.43029 L 264.531006 27.281837 L 260.518982 27.281837 L 260.518982 26.929008 C 260.455017 26.355171 260.243988 25.756493 259.888 25.132965 C 259.768982 24.925621 259.63501 24.715576 259.484009 24.502846 C 259.348999 24.311867 259.209015 24.127579 259.062988 23.949966 C 259.042999 23.924515 259.022003 23.899277 259.001007 23.874229 C 258.596985 23.390892 258.156006 22.957748 257.675995 22.574783 C 257.585999 22.502548 257.493988 22.432198 257.401001 22.363548 C 257.390991 22.356163 257.381012 22.348686 257.371002 22.341301 C 257.362976 22.335716 257.355011 22.330025 257.346985 22.324432 C 256.550995 21.747505 255.826004 21.459038 255.17099 21.459038 C 255.083008 21.459038 254.996994 21.462135 254.912018 21.468323 C 254.187012 21.520805 253.555008 21.797096 253.013992 22.297195 C 252.532013 22.743011 252.133011 23.366745 251.815994 24.168282 C 251.804001 24.198814 251.791992 24.229645 251.779999 24.26078 C 251.712982 24.436195 251.649994 24.619789 251.590988 24.811569 C 251.529999 25.021408 251.475006 25.241524 251.425003 25.472023 C 251.218994 26.437294 251.115997 27.584675 251.115997 28.914051 C 251.115997 30.23555 251.222 31.390213 251.433014 32.37804 C 251.480011 32.599155 251.533005 32.811985 251.590988 33.016438 C 251.654007 33.2155 251.720993 33.405781 251.792999 33.587082 C 251.805008 33.617912 251.817993 33.64835 251.830002 33.67868 C 252.144989 34.444794 252.539993 35.047569 253.013992 35.486706 C 253.555008 35.986809 254.187012 36.2631 254.912018 36.315582 C 254.996994 36.32177 255.083008 36.324863 255.17099 36.324863 C 255.534012 36.324863 255.914993 36.253624 256.313995 36.111332 C 256.705994 35.971638 257.115997 35.763405 257.542999 35.486706 C 257.574005 35.46595 257.604004 35.445095 257.634003 35.424049 C 257.725006 35.360382 257.815002 35.29533 257.903015 35.228775 C 257.966003 35.18148 258.028015 35.133484 258.088989 35.084793 C 258.471008 34.780956 258.828003 34.447788 259.160004 34.085285 C 259.179993 34.06284 259.200989 34.040382 259.221008 34.017735 C 259.419006 33.79752 259.606995 33.566628 259.786011 33.325256 C 259.951996 33.101151 260.10199 32.880035 260.234009 32.662018 C 260.339996 32.4879 260.434998 32.315678 260.518982 32.145451 C 260.731018 31.717693 260.875 31.3022 260.950989 30.899094 L 260.950989 30.546165 L 264.962006 30.546165 L 264.962006 41.397717 L 261.165985 41.397717 L 261.165985 39.456783 C 260.946991 39.538506 260.696991 39.614838 260.419006 39.685978 C 260.377991 39.696251 260.337006 39.706532 260.294983 39.716713 C 259.796997 39.837147 259.210022 39.941719 258.535004 40.030224 C 258.386017 40.059258 258.237976 40.086399 258.088989 40.111843 C 257.634003 40.189571 257.179016 40.250637 256.723999 40.294937 C 256.205994 40.345329 255.687988 40.374165 255.17099 40.381348 C 255.085007 40.382549 254.998001 40.383144 254.912018 40.383144 C 254.70401 40.383144 254.496994 40.378956 254.292999 40.370571 C 252.727997 40.306515 251.279007 39.996696 249.945999 39.441319 C 249.800995 39.380848 249.658005 39.317593 249.514984 39.251331 C 249.298004 39.150154 249.084015 39.042194 248.873001 38.927444 C 247.42099 38.112732 246.225998 37.054062 245.288986 35.751328 C 245.272995 35.729176 245.257004 35.706825 245.240997 35.684475 C 245.04599 35.408775 244.862015 35.122307 244.689987 34.825062 C 243.712006 33.060543 243.222992 31.090164 243.222992 28.914051 C 243.222992 28.907669 243.222992 28.901283 243.222992 28.894989 Z M 268.757019 49.999512 L 272.638977 49.999512 L 272.638977 47.970371 C 273.070007 48.235088 273.60199 48.455605 274.235016 48.632118 C 274.674988 48.767021 275.139984 48.876179 275.630005 48.959496 C 275.781006 48.985142 275.934021 49.008389 276.089996 49.029045 C 276.645996 49.128025 277.191986 49.185398 277.729004 49.201065 C 277.830017 49.20406 277.929993 49.205555 278.031006 49.205555 C 278.549988 49.205555 279.044006 49.148678 279.512024 49.03503 C 280.210999 48.865505 280.852997 48.569351 281.437988 48.146885 C 281.569 48.052589 281.695007 47.95261 281.816986 47.846745 C 282.611023 47.160351 283.231995 46.231094 283.681 45.058968 C 283.842987 44.657249 283.981018 44.230789 284.095001 43.779781 C 284.098999 43.765114 284.102997 43.750343 284.106018 43.735676 C 284.350006 42.755333 284.481018 41.659443 284.497986 40.448002 C 284.498993 40.406494 284.498993 40.364788 284.5 40.323078 C 284.5 40.29454 284.5 40.266006 284.5 40.237366 C 284.5 40.212421 284.5 40.187576 284.5 40.162529 L 284.5 39.456783 C 284.5 39.244144 284.503998 39.036404 284.511017 38.833549 C 284.528992 38.335144 284.567993 37.866577 284.630005 37.427643 C 284.744995 36.810101 284.932007 36.133682 285.190979 35.398502 C 285.218994 35.339626 285.234009 35.295525 285.234009 35.266094 C 285.234009 35.207321 285.247986 35.148548 285.277008 35.089676 L 287.645996 28.818363 L 287.64801 28.815369 L 290.194 22.076683 L 293.127014 22.076683 L 293.127014 17.885986 L 282.429993 17.885986 L 282.429993 22.076683 L 286.01001 22.076683 L 282.602997 32.398891 C 282.515991 32.663513 282.444 32.913467 282.387024 33.148746 C 282.346985 33.292831 282.306 33.451279 282.265991 33.624195 C 282.248993 33.698338 282.231995 33.775169 282.213989 33.854599 C 282.186005 33.761497 282.153992 33.660622 282.117981 33.551956 C 282.065979 33.396805 282.005005 33.225876 281.934998 33.038887 C 281.933014 33.0331 281.931 33.02721 281.929016 33.021427 C 281.848999 32.8055 281.757019 32.568619 281.653992 32.310593 C 281.619995 32.22538 281.587006 32.141262 281.554016 32.058441 C 281.553009 32.056744 281.552002 32.055149 281.552002 32.053455 C 281.471008 31.852493 281.389984 31.658821 281.309021 31.47253 C 281.194 31.178474 281.092987 30.913761 281.007019 30.678474 L 277.427002 22.076683 L 279.971985 22.076683 L 279.971985 17.885986 L 266.298004 17.885986 L 266.298004 22.076683 L 268.886017 22.076683 L 276.089996 37.030613 C 276.096008 37.045383 276.102997 37.060055 276.110016 37.074718 C 276.308014 37.506367 276.496002 37.915974 276.673004 38.303413 C 276.694 38.350018 276.716003 38.396313 276.736023 38.442207 C 276.830994 38.623608 276.92099 38.800125 277.006012 38.97155 C 277.065979 39.092983 277.123993 39.211914 277.179016 39.328365 C 277.187012 39.346519 277.195984 39.364582 277.20401 39.382645 C 277.252014 39.482727 277.296997 39.581009 277.339996 39.677299 C 277.440979 39.892525 277.537018 40.096977 277.627014 40.290649 C 277.661011 40.365685 277.695007 40.439022 277.729004 40.510765 C 277.807007 40.680096 277.880005 40.840542 277.949005 40.992107 C 277.951996 40.998192 277.955017 41.00428 277.958008 41.010368 C 278.294983 41.752934 278.520996 42.279079 278.634003 42.588699 C 278.710022 42.777287 278.772003 42.949005 278.819 43.104065 C 278.830994 43.143681 278.84198 43.182293 278.852997 43.219711 C 278.90802 43.424263 278.936005 43.596283 278.936005 43.735676 L 278.936005 43.779781 C 278.936005 44.044598 278.881012 44.274094 278.770996 44.468369 C 278.721985 44.554577 278.662018 44.633804 278.591003 44.706146 C 278.432007 44.869087 278.244995 44.975552 278.031006 45.025642 C 277.934998 45.047894 277.835022 45.058968 277.729004 45.058968 C 277.445007 45.058968 277.147003 44.997005 276.832001 44.873177 C 276.773987 44.85033 276.714996 44.825382 276.656006 44.79834 C 276.330994 44.64917 275.987976 44.43594 275.630005 44.158749 C 275.626007 44.155354 275.621002 44.151863 275.617004 44.148373 C 275.582001 44.121826 275.548004 44.094688 275.513977 44.067051 C 275.503998 44.059566 275.494995 44.051983 275.486023 44.044399 C 275.433014 44.001694 275.380005 43.95829 275.328003 43.914185 C 275.294983 43.886745 275.263 43.859104 275.231018 43.831165 C 275.221985 43.823383 275.212982 43.815601 275.20401 43.80772 C 275.194 43.798439 275.183014 43.789162 275.173004 43.779781 C 275.156006 43.765114 275.139984 43.750446 275.123993 43.735676 C 274.471985 43.145874 273.902008 42.440025 273.414978 41.618229 C 273.39801 41.590492 273.382019 41.562653 273.36499 41.535015 C 273.354004 41.516155 273.342987 41.497299 273.332001 41.478539 C 273.263 41.361595 273.200012 41.245651 273.139984 41.130703 C 273.080994 41.014759 273.024994 40.89991 272.975006 40.785862 C 272.927002 40.677696 272.882996 40.570335 272.842987 40.463768 C 272.815979 40.390732 272.789978 40.317989 272.766998 40.24575 C 272.623993 39.806412 272.553009 39.381649 272.553009 38.97155 L 272.553009 37.074718 L 268.757019 37.074718 L 268.757019 49.999512 Z M 232.779999 32.55545 C 232.710007 32.752419 232.630005 32.944496 232.539993 33.131981 C 232.526001 33.160118 232.512985 33.188259 232.498993 33.216194 C 232.472992 33.267582 232.445999 33.318672 232.418991 33.369362 C 232.335007 33.530407 232.246994 33.685566 232.153 33.834843 C 231.86499 34.293629 231.533005 34.696941 231.154999 35.044682 C 231.118988 35.077106 231.084015 35.109035 231.048004 35.140469 C 231.041992 35.145561 231.036011 35.150749 231.029999 35.155834 C 230.903 35.265388 230.772003 35.369068 230.636017 35.46685 C 230.633011 35.468945 230.630005 35.471039 230.626999 35.473137 C 230.619995 35.477726 230.613983 35.482216 230.608002 35.486706 C 229.888992 35.986607 229.156006 36.236656 228.408005 36.236656 C 228.408005 36.236656 228.408005 36.236656 228.408005 36.236656 C 228.394989 36.236656 228.382004 36.236557 228.368988 36.236362 C 227.667999 36.226986 227.106003 35.96236 226.683014 35.4426 C 226.512985 35.234463 226.376999 35.001274 226.274002 34.743141 C 226.126999 34.37455 226.048004 33.954975 226.037018 33.484402 C 226.036011 33.446388 226.036011 33.408077 226.036011 33.369362 C 226.036011 33.358387 226.036011 33.347412 226.036011 33.336433 C 226.041992 32.322762 226.343994 31.525013 226.940994 30.943192 C 227.024002 30.858875 227.112015 30.778351 227.205002 30.701725 C 227.214996 30.693539 227.225006 30.685459 227.235016 30.677475 C 227.237991 30.675079 227.240997 30.672688 227.243988 30.670391 C 227.26001 30.657524 227.276001 30.644745 227.291992 30.632175 C 227.347992 30.589569 227.404999 30.54826 227.462982 30.508152 C 227.467987 30.505257 227.472 30.50246 227.475998 30.499569 C 227.590988 30.422138 227.712006 30.3494 227.839996 30.281445 C 228.016998 30.187756 228.206009 30.103138 228.408005 30.027504 C 228.769989 29.891903 229.171997 29.785442 229.615997 29.708012 C 229.720001 29.689648 229.821991 29.670193 229.921997 29.649532 C 230.205002 29.591068 230.472992 29.523415 230.723999 29.446484 C 230.904007 29.3913 231.076004 29.331337 231.23999 29.266678 C 231.246994 29.263882 231.253998 29.261093 231.261017 29.258194 C 231.425003 29.192444 231.582001 29.121799 231.729004 29.04636 C 232.304001 28.72287 232.779007 28.355282 233.153 27.943584 L 233.153 30.281445 C 233.153 30.67289 233.123993 31.050652 233.066986 31.414661 C 233.058014 31.474327 233.048004 31.533596 233.037018 31.592468 C 232.975998 31.925232 232.889984 32.246231 232.779999 32.55545 Z"></path>
    <path id="path17" fill="#ffffff" stroke="none" d="M 12.191401 62.201496 C 12.191401 62.061203 12.3054 61.947453 12.446 61.947453 L 69.8965 61.947453 C 70.037094 61.947453 70.1511 62.061203 70.1511 62.201496 L 70.1511 83.749435 C 70.1511 83.889732 70.037094 84.003479 69.8965 84.003479 L 12.446 84.003479 C 12.3054 84.003479 12.191401 83.889732 12.191401 83.749435 L 12.191401 62.201496 Z"></path>
    <path id="path18" fill="#1b1819" fill-rule="evenodd" stroke="none" d="M 12.4464 55.089123 L 69.896896 55.089123 C 73.833504 55.089123 77.024597 58.273323 77.024597 62.201096 L 77.024597 83.749039 C 77.024597 87.676903 73.833397 90.861099 69.896896 90.861099 L 12.4464 90.861099 C 8.509851 90.861099 5.31875 87.676903 5.31875 83.749039 L 5.31875 62.201096 C 5.31875 58.273228 8.5099 55.089123 12.4464 55.089123 Z M 12.4464 61.947052 C 12.305799 61.947052 12.1918 62.060799 12.1918 62.201096 L 12.1918 83.749039 C 12.1918 83.889328 12.305799 84.003082 12.4464 84.003082 L 69.896896 84.003082 C 70.037498 84.003082 70.151505 83.889328 70.151505 83.749039 L 70.151505 62.201096 C 70.151505 62.060799 70.037498 61.947052 69.896896 61.947052 L 12.4464 61.947052 Z"></path>
</svg>