<?xml version="1.0" encoding="UTF-8"?>
<svg xmlns="http://www.w3.org/2000/svg" xmlns:xlink="http://www.w3.org/1999/xlink" width="200" height="61pt" viewBox="0 0 200 61" version="1.1">
<g id="surface1">
<path style=" stroke:none;fill-rule:nonzero;fill:rgb(10.588235%,9.411765%,9.803922%);fill-opacity:1;" d="M 8.105469 28.007812 L 119.09375 28.007812 L 119.09375 41.117188 L 8.105469 41.117188 Z M 8.105469 28.007812 "/>
<path style=" stroke:none;fill-rule:nonzero;fill:rgb(100%,100%,100%);fill-opacity:1;" d="M 53.398438 53.3125 L 55.65625 53.3125 L 55.65625 44.195312 L 53.398438 44.195312 L 53.398438 41.402344 L 60.464844 41.402344 L 60.464844 43.34375 C 60.914062 42.597656 61.480469 42.039062 62.164062 41.667969 C 62.867188 41.292969 63.6875 41.109375 64.625 41.109375 C 65.761719 41.109375 66.738281 41.371094 67.558594 41.902344 C 68.378906 42.414062 69.015625 43.15625 69.464844 44.136719 C 69.914062 45.117188 70.136719 46.265625 70.136719 47.578125 L 70.136719 53.3125 L 72.074219 53.3125 L 72.074219 56.109375 L 63.21875 56.109375 L 63.21875 53.3125 L 65.035156 53.3125 L 65.035156 47.960938 C 65.035156 46.707031 64.859375 45.765625 64.507812 45.136719 C 64.15625 44.511719 63.667969 44.195312 63.042969 44.195312 C 62.574219 44.195312 62.164062 44.371094 61.8125 44.726562 C 61.460938 45.058594 61.1875 45.539062 60.992188 46.167969 C 60.816406 46.792969 60.726562 47.519531 60.726562 48.34375 L 60.726562 53.3125 L 62.488281 53.3125 L 62.488281 56.109375 L 53.398438 56.109375 Z M 53.398438 53.3125 "/>
<path style=" stroke:none;fill-rule:nonzero;fill:rgb(100%,100%,100%);fill-opacity:1;" d="M 81.460938 56.402344 C 79.816406 56.402344 78.363281 56.078125 77.09375 55.429688 C 75.839844 54.785156 74.863281 53.882812 74.160156 52.726562 C 73.457031 51.570312 73.105469 50.246094 73.105469 48.753906 C 73.105469 47.265625 73.457031 45.941406 74.160156 44.785156 C 74.863281 43.628906 75.851562 42.726562 77.121094 42.078125 C 78.390625 41.433594 79.839844 41.109375 81.460938 41.109375 C 83.082031 41.109375 84.527344 41.433594 85.796875 42.078125 C 87.070312 42.726562 88.054688 43.628906 88.757812 44.785156 C 89.460938 45.941406 89.816406 47.265625 89.816406 48.753906 C 89.816406 50.226562 89.453125 51.539062 88.730469 52.695312 C 88.027344 53.851562 87.039062 54.765625 85.769531 55.429688 C 84.5 56.078125 83.0625 56.402344 81.460938 56.402344 Z M 81.460938 53.667969 C 82.066406 53.667969 82.582031 53.492188 83.011719 53.136719 C 83.441406 52.765625 83.765625 52.214844 83.980469 51.492188 C 84.195312 50.765625 84.304688 49.851562 84.304688 48.753906 C 84.304688 47.65625 84.195312 46.746094 83.980469 46.019531 C 83.765625 45.273438 83.441406 44.726562 83.011719 44.371094 C 82.582031 44 82.066406 43.8125 81.460938 43.8125 C 80.835938 43.8125 80.308594 44 79.875 44.371094 C 79.464844 44.726562 79.144531 45.273438 78.910156 46.019531 C 78.695312 46.746094 78.585938 47.65625 78.585938 48.753906 C 78.585938 49.851562 78.695312 50.765625 78.910156 51.492188 C 79.144531 52.214844 79.464844 52.765625 79.875 53.136719 C 80.308594 53.492188 80.835938 53.667969 81.460938 53.667969 Z M 81.460938 53.667969 "/>
<path style=" stroke:none;fill-rule:nonzero;fill:rgb(100%,100%,100%);fill-opacity:1;" d="M 91.777344 44.195312 L 90.078125 44.195312 L 90.078125 41.402344 L 97.875 41.402344 L 97.875 44.195312 L 97.054688 44.195312 L 99.078125 52.519531 L 99.164062 52.519531 L 100.691406 46.871094 L 99.8125 44.195312 L 98.609375 44.195312 L 98.609375 41.402344 L 106.875 41.402344 L 106.875 44.195312 L 105.527344 44.195312 L 107.8125 52.550781 L 107.929688 52.550781 L 109.953125 44.195312 L 108.429688 44.195312 L 108.429688 41.402344 L 114.644531 41.402344 L 114.644531 44.195312 L 112.914062 44.195312 L 109.601562 56.109375 L 104.207031 56.109375 L 102.332031 49.019531 L 100.398438 56.109375 L 95.0625 56.109375 Z M 91.777344 44.195312 "/>
<path style=" stroke:none;fill-rule:evenodd;fill:rgb(10.588235%,9.411765%,9.803922%);fill-opacity:1;" d="M 51.074219 48.160156 C 49.722656 47.359375 48.816406 45.882812 48.816406 44.195312 L 48.816406 41.402344 C 48.816406 38.863281 50.867188 36.804688 53.398438 36.804688 L 60.464844 36.804688 C 60.855469 36.804688 61.238281 36.855469 61.605469 36.949219 C 62.597656 36.640625 63.617188 36.511719 64.625 36.511719 C 66.480469 36.511719 68.339844 36.949219 70.003906 38.015625 C 70.863281 38.554688 71.601562 39.210938 72.21875 39.957031 C 73.054688 39.171875 74.003906 38.511719 75.046875 37.980469 C 77.042969 36.960938 79.21875 36.511719 81.460938 36.511719 C 83.503906 36.511719 85.488281 36.886719 87.332031 37.71875 C 88.097656 37.144531 89.046875 36.804688 90.078125 36.804688 L 97.875 36.804688 C 98 36.804688 98.121094 36.808594 98.242188 36.820312 C 98.363281 36.808594 98.484375 36.804688 98.609375 36.804688 L 106.875 36.804688 C 107.140625 36.804688 107.398438 36.828125 107.652344 36.871094 C 107.90625 36.828125 108.164062 36.804688 108.429688 36.804688 L 114.644531 36.804688 C 117.175781 36.804688 119.226562 38.863281 119.226562 41.402344 L 119.226562 44.195312 C 119.226562 46.070312 118.105469 47.683594 116.503906 48.398438 L 114.015625 57.34375 C 113.460938 59.332031 111.65625 60.703125 109.601562 60.703125 L 104.207031 60.703125 C 103.535156 60.703125 102.886719 60.558594 102.300781 60.289062 C 101.71875 60.558594 101.070312 60.703125 100.398438 60.703125 L 95.0625 60.703125 C 93.0625 60.703125 91.300781 59.40625 90.695312 57.507812 C 89.867188 58.296875 88.925781 58.960938 87.894531 59.503906 C 87.875 59.511719 87.859375 59.523438 87.84375 59.53125 C 85.851562 60.542969 83.691406 61 81.460938 61 C 79.234375 61 77.074219 60.5625 75.089844 59.566406 C 74.285156 60.277344 73.226562 60.703125 72.070312 60.703125 L 63.21875 60.703125 C 63.097656 60.703125 62.972656 60.699219 62.851562 60.691406 C 62.730469 60.699219 62.609375 60.703125 62.484375 60.703125 L 53.398438 60.703125 C 50.867188 60.703125 48.816406 58.648438 48.816406 56.109375 L 48.816406 53.3125 C 48.816406 51.625 49.722656 50.152344 51.074219 49.351562 Z M 62.484375 56.109375 L 62.484375 53.3125 L 60.726562 53.3125 L 60.726562 48.34375 C 60.726562 48.214844 60.730469 48.085938 60.734375 47.960938 C 60.734375 47.953125 60.734375 47.941406 60.734375 47.933594 C 60.738281 47.863281 60.742188 47.792969 60.746094 47.722656 C 60.753906 47.554688 60.769531 47.394531 60.785156 47.238281 C 60.832031 46.855469 60.898438 46.496094 60.992188 46.167969 C 61.1875 45.539062 61.460938 45.058594 61.8125 44.726562 C 61.941406 44.597656 62.078125 44.492188 62.21875 44.410156 C 62.472656 44.265625 62.746094 44.195312 63.042969 44.195312 C 63.21875 44.195312 63.378906 44.21875 63.53125 44.269531 C 63.546875 44.273438 63.566406 44.277344 63.582031 44.285156 C 63.957031 44.417969 64.265625 44.703125 64.507812 45.136719 C 64.550781 45.210938 64.589844 45.289062 64.625 45.371094 C 64.671875 45.476562 64.714844 45.589844 64.753906 45.707031 C 64.894531 46.144531 64.984375 46.675781 65.019531 47.304688 C 65.019531 47.34375 65.023438 47.386719 65.027344 47.429688 C 65.03125 47.601562 65.035156 47.777344 65.035156 47.960938 L 65.035156 53.3125 L 63.21875 53.3125 L 63.21875 56.109375 L 72.070312 56.109375 L 72.070312 53.3125 L 70.136719 53.3125 L 70.136719 47.578125 C 70.136719 46.265625 69.914062 45.117188 69.464844 44.136719 C 69.449219 44.105469 69.433594 44.070312 69.417969 44.039062 C 69.097656 43.367188 68.683594 42.8125 68.183594 42.367188 C 67.988281 42.195312 67.78125 42.039062 67.558594 41.902344 C 66.839844 41.4375 65.996094 41.175781 65.039062 41.121094 C 64.902344 41.113281 64.765625 41.109375 64.625 41.109375 C 64.054688 41.109375 63.527344 41.175781 63.042969 41.316406 C 62.949219 41.339844 62.859375 41.371094 62.769531 41.402344 C 62.558594 41.476562 62.355469 41.566406 62.164062 41.667969 C 61.488281 42.035156 60.929688 42.582031 60.480469 43.3125 C 60.476562 43.324219 60.46875 43.332031 60.464844 43.34375 L 60.464844 41.402344 L 53.398438 41.402344 L 53.398438 44.195312 L 55.65625 44.195312 L 55.65625 53.3125 L 53.398438 53.3125 L 53.398438 56.109375 Z M 73.105469 48.832031 C 73.117188 50.292969 73.46875 51.589844 74.160156 52.726562 C 74.285156 52.929688 74.417969 53.125 74.558594 53.3125 C 74.640625 53.425781 74.726562 53.535156 74.816406 53.640625 C 75.332031 54.246094 75.941406 54.761719 76.652344 55.1875 C 76.796875 55.273438 76.941406 55.355469 77.089844 55.429688 C 77.257812 55.515625 77.425781 55.59375 77.59375 55.667969 C 77.648438 55.691406 77.703125 55.710938 77.757812 55.734375 C 78.863281 56.179688 80.097656 56.402344 81.460938 56.402344 C 82.796875 56.402344 84.019531 56.175781 85.125 55.726562 C 85.152344 55.714844 85.183594 55.703125 85.210938 55.691406 C 85.398438 55.609375 85.585938 55.523438 85.769531 55.429688 C 86.703125 54.941406 87.484375 54.316406 88.113281 53.5625 C 88.339844 53.289062 88.542969 53 88.730469 52.695312 C 88.886719 52.441406 89.027344 52.183594 89.152344 51.914062 C 89.589844 50.964844 89.808594 49.921875 89.8125 48.785156 C 89.8125 48.777344 89.8125 48.765625 89.8125 48.753906 C 89.8125 47.355469 89.503906 46.105469 88.882812 45 C 88.84375 44.925781 88.800781 44.855469 88.757812 44.785156 C 88.632812 44.582031 88.503906 44.382812 88.359375 44.195312 C 88.269531 44.074219 88.171875 43.957031 88.074219 43.839844 C 87.457031 43.125 86.699219 42.539062 85.796875 42.078125 C 85.699219 42.027344 85.597656 41.980469 85.496094 41.933594 C 85.402344 41.890625 85.3125 41.851562 85.21875 41.8125 C 85.1875 41.796875 85.160156 41.785156 85.132812 41.773438 C 84.027344 41.332031 82.804688 41.109375 81.460938 41.109375 C 80.074219 41.109375 78.820312 41.34375 77.691406 41.816406 C 77.6875 41.816406 77.683594 41.816406 77.679688 41.820312 C 77.488281 41.898438 77.304688 41.984375 77.121094 42.078125 C 76.203125 42.546875 75.429688 43.148438 74.808594 43.882812 C 74.65625 44.0625 74.511719 44.25 74.378906 44.445312 C 74.304688 44.554688 74.230469 44.667969 74.160156 44.785156 C 73.648438 45.628906 73.320312 46.558594 73.183594 47.578125 C 73.128906 47.957031 73.105469 48.351562 73.105469 48.753906 C 73.105469 48.78125 73.105469 48.808594 73.105469 48.832031 Z M 79.875 44.371094 C 79.511719 44.6875 79.21875 45.152344 78.992188 45.777344 C 78.964844 45.855469 78.933594 45.9375 78.910156 46.019531 C 78.871094 46.144531 78.839844 46.269531 78.808594 46.40625 C 78.660156 47.058594 78.585938 47.84375 78.585938 48.753906 C 78.585938 49.671875 78.660156 50.460938 78.8125 51.117188 C 78.839844 51.246094 78.875 51.371094 78.910156 51.488281 C 78.933594 51.5625 78.957031 51.628906 78.980469 51.699219 C 78.984375 51.710938 78.988281 51.71875 78.992188 51.730469 C 79.21875 52.339844 79.511719 52.808594 79.875 53.136719 C 80.308594 53.488281 80.835938 53.667969 81.460938 53.667969 C 82.066406 53.667969 82.582031 53.488281 83.011719 53.136719 C 83.378906 52.820312 83.667969 52.375 83.878906 51.804688 C 83.882812 51.78125 83.894531 51.761719 83.898438 51.738281 C 83.929688 51.660156 83.957031 51.574219 83.980469 51.488281 C 84.019531 51.363281 84.054688 51.226562 84.085938 51.089844 C 84.230469 50.4375 84.304688 49.660156 84.304688 48.753906 C 84.304688 47.832031 84.226562 47.042969 84.074219 46.382812 C 84.046875 46.257812 84.015625 46.136719 83.980469 46.019531 C 83.960938 45.945312 83.9375 45.875 83.914062 45.804688 C 83.699219 45.167969 83.402344 44.691406 83.011719 44.371094 C 82.582031 44 82.066406 43.8125 81.460938 43.8125 C 80.835938 43.8125 80.308594 44 79.875 44.371094 Z M 79.566406 47.257812 C 79.566406 47.253906 79.5625 47.25 79.5625 47.25 C 79.5625 47.25 79.566406 47.253906 79.566406 47.257812 Z M 79.578125 50.214844 C 79.574219 50.21875 79.574219 50.21875 79.574219 50.21875 C 79.574219 50.21875 79.574219 50.21875 79.578125 50.214844 Z M 95.0625 56.109375 L 100.398438 56.109375 L 102.332031 49.019531 L 103.574219 53.71875 L 104.207031 56.109375 L 109.601562 56.109375 L 112.914062 44.195312 L 114.644531 44.195312 L 114.644531 41.402344 L 108.429688 41.402344 L 108.429688 44.195312 L 109.953125 44.195312 L 107.929688 52.550781 L 107.8125 52.550781 L 105.527344 44.195312 L 106.875 44.195312 L 106.875 41.402344 L 98.609375 41.402344 L 98.609375 44.195312 L 99.8125 44.195312 L 100.691406 46.871094 L 99.164062 52.519531 L 99.078125 52.519531 L 97.054688 44.195312 L 97.875 44.195312 L 97.875 41.402344 L 90.078125 41.402344 L 90.078125 44.195312 L 91.777344 44.195312 Z M 95.0625 56.109375 "/>
<path style=" stroke:none;fill-rule:nonzero;fill:rgb(100%,100%,100%);fill-opacity:1;" d="M 6.25 14.800781 L 4.582031 14.800781 L 4.582031 11.988281 L 12.230469 11.988281 L 12.230469 14.800781 L 11.425781 14.800781 L 13.410156 23.167969 L 13.496094 23.167969 L 14.992188 17.488281 L 14.128906 14.800781 L 12.949219 14.800781 L 12.949219 11.988281 L 21.058594 11.988281 L 21.058594 14.800781 L 19.734375 14.800781 L 21.980469 23.195312 L 22.09375 23.195312 L 24.078125 14.800781 L 22.582031 14.800781 L 22.582031 11.988281 L 28.679688 11.988281 L 28.679688 14.800781 L 26.984375 14.800781 L 23.734375 26.773438 L 18.441406 26.773438 L 16.601562 19.648438 L 14.703125 26.773438 L 9.46875 26.773438 Z M 6.25 14.800781 "/>
<path style=" stroke:none;fill-rule:nonzero;fill:rgb(100%,100%,100%);fill-opacity:1;" d="M 40.808594 26.417969 C 40.367188 26.578125 39.792969 26.714844 39.082031 26.832031 C 38.679688 26.894531 38.269531 26.941406 37.847656 26.980469 C 37.445312 27.039062 37.03125 27.070312 36.609375 27.070312 C 35.132812 27.070312 33.8125 26.753906 32.640625 26.125 C 31.472656 25.492188 30.550781 24.605469 29.882812 23.460938 C 29.230469 22.320312 28.902344 21 28.902344 19.5 C 28.902344 17.960938 29.230469 16.601562 29.882812 15.417969 C 30.550781 14.238281 31.480469 13.320312 32.671875 12.667969 C 33.859375 12.019531 35.21875 11.695312 36.753906 11.695312 C 38.289062 11.695312 39.628906 12.019531 40.78125 12.667969 C 41.949219 13.300781 42.851562 14.199219 43.480469 15.359375 C 44.113281 16.503906 44.441406 17.835938 44.460938 19.351562 C 44.460938 19.492188 44.449219 19.636719 44.429688 19.796875 C 44.429688 19.933594 44.421875 20.082031 44.402344 20.238281 L 34.050781 20.238281 C 34.128906 21.207031 34.28125 22.023438 34.511719 22.695312 C 34.761719 23.363281 35.078125 23.867188 35.460938 24.203125 C 35.84375 24.539062 36.285156 24.703125 36.78125 24.703125 C 37.222656 24.703125 37.710938 24.539062 38.25 24.203125 C 38.804688 23.867188 39.285156 23.472656 39.6875 23.019531 C 40.109375 22.566406 40.367188 22.160156 40.464844 21.808594 L 40.464844 21.628906 L 43.367188 21.628906 L 43.367188 27.75 L 40.808594 27.75 Z M 39.3125 18.464844 C 39.21875 17.460938 39.054688 16.640625 38.824219 16.011719 C 38.59375 15.359375 38.296875 14.878906 37.933594 14.5625 C 37.570312 14.246094 37.148438 14.089844 36.667969 14.089844 C 36.1875 14.089844 35.765625 14.257812 35.402344 14.59375 C 35.039062 14.90625 34.742188 15.390625 34.511719 16.039062 C 34.300781 16.691406 34.15625 17.5 34.078125 18.464844 Z M 39.3125 18.464844 "/>
<path style=" stroke:none;fill-rule:nonzero;fill:rgb(100%,100%,100%);fill-opacity:1;" d="M 56.03125 27.070312 C 55.109375 27.070312 54.304688 26.894531 53.613281 26.539062 C 52.921875 26.164062 52.339844 25.613281 51.859375 24.882812 L 51.859375 26.773438 L 47.144531 26.773438 L 47.144531 8.886719 L 44.84375 8.886719 L 44.84375 6.074219 L 52.089844 6.074219 L 52.089844 13.675781 C 52.550781 13.023438 53.105469 12.53125 53.757812 12.195312 C 54.429688 11.863281 55.1875 11.695312 56.03125 11.695312 C 57.277344 11.695312 58.398438 12.019531 59.394531 12.667969 C 60.390625 13.300781 61.167969 14.199219 61.722656 15.359375 C 62.277344 16.523438 62.558594 17.863281 62.558594 19.382812 C 62.558594 20.898438 62.277344 22.242188 61.722656 23.402344 C 61.167969 24.566406 60.390625 25.472656 59.394531 26.125 C 58.414062 26.753906 57.292969 27.070312 56.03125 27.070312 Z M 54.648438 24.054688 C 55.167969 24.054688 55.609375 23.894531 55.972656 23.582031 C 56.355469 23.246094 56.652344 22.734375 56.863281 22.042969 C 57.074219 21.351562 57.179688 20.464844 57.179688 19.382812 C 57.179688 18.296875 57.074219 17.410156 56.863281 16.722656 C 56.652344 16.011719 56.355469 15.5 55.972656 15.183594 C 55.609375 14.867188 55.167969 14.710938 54.648438 14.710938 C 54.113281 14.710938 53.625 14.917969 53.183594 15.332031 C 52.761719 15.726562 52.425781 16.277344 52.175781 16.988281 C 51.945312 17.695312 51.832031 18.496094 51.832031 19.382812 C 51.832031 20.25 51.945312 21.039062 52.175781 21.746094 C 52.425781 22.457031 52.761719 23.019531 53.183594 23.433594 C 53.625 23.847656 54.113281 24.054688 54.648438 24.054688 Z M 54.648438 24.054688 "/>
<path style=" stroke:none;fill-rule:nonzero;fill:rgb(100%,100%,100%);fill-opacity:1;" d="M 65.074219 18.613281 L 67.777344 18.613281 L 67.777344 18.761719 C 67.777344 19.511719 68.015625 20.328125 68.496094 21.214844 C 68.992188 22.101562 69.625 22.851562 70.394531 23.460938 C 71.179688 24.054688 71.964844 24.351562 72.75 24.351562 C 73.324219 24.351562 73.804688 24.191406 74.1875 23.875 C 74.570312 23.542969 74.847656 23.097656 75.023438 22.546875 C 75.214844 21.972656 75.308594 21.324219 75.308594 20.59375 C 75.308594 19.804688 75.203125 19.144531 74.992188 18.613281 C 74.78125 18.082031 74.496094 17.6875 74.128906 17.429688 C 73.785156 17.15625 73.394531 17.015625 72.953125 17.015625 C 72.625 17.015625 72.289062 17.085938 71.945312 17.222656 C 71.621094 17.363281 71.3125 17.558594 71.023438 17.816406 L 70.738281 18.082031 L 69.355469 16.1875 L 75.222656 11.074219 L 70.191406 11.074219 C 69.691406 11.074219 69.308594 11.101562 69.042969 11.160156 C 68.792969 11.222656 68.601562 11.328125 68.464844 11.488281 C 68.351562 11.644531 68.292969 11.890625 68.292969 12.226562 L 68.292969 13.230469 L 65.5625 13.230469 L 65.5625 4.597656 L 68.320312 4.597656 L 68.320312 6.074219 L 80.886719 6.074219 L 80.886719 8.855469 L 73.988281 15.242188 C 74.234375 15.144531 74.515625 15.074219 74.820312 15.035156 C 75.128906 14.976562 75.414062 14.945312 75.683594 14.945312 C 76.71875 14.945312 77.648438 15.183594 78.472656 15.65625 C 79.316406 16.109375 79.976562 16.761719 80.457031 17.609375 C 80.9375 18.4375 81.175781 19.390625 81.175781 20.476562 C 81.175781 21.738281 80.859375 22.871094 80.226562 23.875 C 79.59375 24.882812 78.683594 25.679688 77.496094 26.273438 C 76.308594 26.84375 74.898438 27.128906 73.269531 27.128906 C 72.65625 27.128906 72.042969 27.058594 71.429688 26.921875 C 70.8125 26.785156 70.269531 26.597656 69.789062 26.359375 C 69.480469 26.261719 69.15625 26.164062 68.8125 26.066406 C 68.484375 25.945312 68.160156 25.847656 67.832031 25.769531 L 67.832031 27.632812 L 65.074219 27.632812 Z M 65.074219 18.613281 "/>
<path style=" stroke:none;fill-rule:nonzero;fill:rgb(100%,100%,100%);fill-opacity:1;" d="M 82.753906 29.878906 L 84.96875 29.878906 L 84.96875 14.800781 L 82.753906 14.800781 L 82.753906 11.988281 L 89.683594 11.988281 L 89.683594 13.851562 C 90.164062 13.144531 90.746094 12.609375 91.4375 12.257812 C 92.148438 11.882812 92.960938 11.695312 93.882812 11.695312 C 95.128906 11.695312 96.25 12.007812 97.246094 12.640625 C 98.242188 13.269531 99.019531 14.167969 99.574219 15.332031 C 100.128906 16.496094 100.410156 17.84375 100.410156 19.382812 C 100.410156 20.898438 100.121094 22.242188 99.546875 23.402344 C 98.988281 24.566406 98.214844 25.472656 97.21875 26.125 C 96.238281 26.753906 95.128906 27.070312 93.882812 27.070312 C 93.019531 27.070312 92.261719 26.902344 91.609375 26.566406 C 90.957031 26.234375 90.402344 25.730469 89.941406 25.058594 L 89.941406 30.027344 L 93.535156 30.027344 L 93.535156 32.6875 L 82.753906 32.6875 Z M 92.5 24.054688 C 93 24.054688 93.441406 23.894531 93.824219 23.582031 C 94.207031 23.246094 94.496094 22.734375 94.6875 22.042969 C 94.898438 21.351562 95.003906 20.464844 95.003906 19.382812 C 95.003906 18.296875 94.898438 17.410156 94.6875 16.722656 C 94.496094 16.011719 94.207031 15.5 93.824219 15.183594 C 93.441406 14.867188 93 14.710938 92.5 14.710938 C 91.945312 14.710938 91.445312 14.917969 91.007812 15.332031 C 90.585938 15.726562 90.257812 16.277344 90.027344 16.988281 C 89.796875 17.695312 89.683594 18.496094 89.683594 19.382812 C 89.683594 20.25 89.796875 21.039062 90.027344 21.746094 C 90.257812 22.457031 90.585938 23.019531 91.007812 23.433594 C 91.445312 23.847656 91.945312 24.054688 92.5 24.054688 Z M 92.5 24.054688 "/>
<path style=" stroke:none;fill-rule:nonzero;fill:rgb(100%,100%,100%);fill-opacity:1;" d="M 101.566406 23.964844 L 103.78125 23.964844 L 103.78125 14.800781 L 101.566406 14.800781 L 101.566406 11.988281 L 108.496094 11.988281 L 108.496094 14 C 108.785156 13.289062 109.199219 12.738281 109.734375 12.34375 C 110.269531 11.949219 110.882812 11.753906 111.574219 11.753906 C 111.863281 11.753906 112.199219 11.8125 112.582031 11.929688 C 112.695312 11.96875 112.8125 12.007812 112.925781 12.050781 C 113.039062 12.089844 113.148438 12.128906 113.242188 12.167969 L 113.242188 10.777344 L 115.800781 10.777344 L 115.800781 18.613281 L 113.328125 18.613281 L 113.328125 18.199219 C 113.328125 17.726562 113.175781 17.242188 112.867188 16.75 C 112.582031 16.238281 112.214844 15.8125 111.777344 15.480469 C 111.355469 15.144531 110.96875 14.976562 110.625 14.976562 C 110.261719 14.976562 109.933594 15.132812 109.648438 15.449219 C 109.378906 15.746094 109.160156 16.179688 108.988281 16.75 C 108.832031 17.300781 108.757812 17.972656 108.757812 18.761719 L 108.757812 23.964844 L 112.265625 23.964844 L 112.265625 26.773438 L 101.566406 26.773438 Z M 101.566406 23.964844 "/>
<path style=" stroke:none;fill-rule:nonzero;fill:rgb(100%,100%,100%);fill-opacity:1;" d="M 117.65625 23.964844 L 119.871094 23.964844 L 119.871094 14.800781 L 117.65625 14.800781 L 117.65625 11.988281 L 124.847656 11.988281 L 124.847656 23.964844 L 127.0625 23.964844 L 127.0625 26.773438 L 117.65625 26.773438 Z M 118.75 4.746094 L 125.363281 4.746094 L 122.203125 10.660156 L 121.914062 10.660156 Z M 118.75 4.746094 "/>
<path style=" stroke:none;fill-rule:nonzero;fill:rgb(100%,100%,100%);fill-opacity:1;" d="M 129.585938 14.800781 L 127.800781 14.800781 L 127.800781 11.988281 L 137.035156 11.988281 L 137.035156 14.800781 L 135.078125 14.800781 L 137.925781 22.636719 L 138.011719 22.636719 L 140.886719 14.800781 L 138.527344 14.800781 L 138.527344 11.988281 L 145.6875 11.988281 L 145.6875 14.800781 L 143.90625 14.800781 L 139.246094 26.773438 L 134.300781 26.773438 Z M 129.585938 14.800781 "/>
<path style=" stroke:none;fill-rule:nonzero;fill:rgb(100%,100%,100%);fill-opacity:1;" d="M 150.171875 27.070312 C 148.679688 27.070312 147.519531 26.707031 146.695312 25.976562 C 145.871094 25.226562 145.457031 24.230469 145.457031 22.988281 C 145.457031 21.667969 145.964844 20.644531 146.980469 19.914062 C 147.996094 19.183594 149.503906 18.742188 151.496094 18.582031 C 152.433594 18.503906 153.171875 18.375 153.710938 18.199219 C 154.265625 18.023438 154.667969 17.777344 154.917969 17.460938 C 155.1875 17.125 155.320312 16.691406 155.320312 16.160156 C 155.320312 15.429688 155.1875 14.90625 154.917969 14.59375 C 154.648438 14.277344 154.246094 14.117188 153.710938 14.117188 C 153.171875 14.117188 152.589844 14.304688 151.957031 14.679688 C 151.34375 15.054688 150.816406 15.519531 150.375 16.070312 C 149.933594 16.621094 149.683594 17.144531 149.625 17.636719 L 149.625 17.875 L 147.066406 17.875 L 147.066406 11.015625 L 149.597656 11.015625 L 149.597656 12.285156 C 150.308594 12.207031 150.96875 12.109375 151.582031 11.988281 C 151.945312 11.890625 152.328125 11.820312 152.730469 11.78125 C 153.132812 11.722656 153.558594 11.695312 153.996094 11.695312 C 155.953125 11.695312 157.476562 12.226562 158.570312 13.289062 C 159.660156 14.355469 160.207031 15.84375 160.207031 17.753906 L 160.207031 23.964844 L 162.046875 23.964844 L 162.046875 26.773438 L 155.464844 26.773438 L 155.464844 24.496094 C 154.90625 25.363281 154.179688 26.015625 153.277344 26.449219 C 152.398438 26.863281 151.359375 27.070312 150.171875 27.070312 Z M 152.273438 24.289062 C 152.769531 24.289062 153.257812 24.125 153.738281 23.789062 C 154.238281 23.433594 154.640625 22.960938 154.945312 22.367188 C 155.273438 21.757812 155.433594 21.066406 155.433594 20.296875 L 155.433594 18.730469 C 155.1875 19.007812 154.871094 19.253906 154.484375 19.472656 C 154.101562 19.667969 153.632812 19.816406 153.078125 19.914062 C 152.292969 20.050781 151.699219 20.328125 151.292969 20.742188 C 150.890625 21.136719 150.691406 21.679688 150.691406 22.367188 C 150.691406 22.941406 150.835938 23.402344 151.121094 23.757812 C 151.410156 24.113281 151.792969 24.289062 152.273438 24.289062 Z M 152.273438 24.289062 "/>
<path style=" stroke:none;fill-rule:nonzero;fill:rgb(100%,100%,100%);fill-opacity:1;" d="M 174.109375 26.449219 C 173.6875 26.605469 173.105469 26.734375 172.355469 26.832031 C 171.953125 26.914062 171.550781 26.972656 171.148438 27.011719 C 170.746094 27.050781 170.34375 27.070312 169.941406 27.070312 C 168.445312 27.070312 167.105469 26.746094 165.914062 26.09375 C 164.726562 25.425781 163.796875 24.507812 163.125 23.34375 C 162.476562 22.160156 162.148438 20.839844 162.148438 19.382812 C 162.148438 17.902344 162.476562 16.582031 163.125 15.417969 C 163.796875 14.257812 164.726562 13.351562 165.914062 12.699219 C 167.105469 12.027344 168.445312 11.695312 169.941406 11.695312 C 170.652344 11.695312 171.378906 11.761719 172.125 11.902344 C 172.816406 12.019531 173.382812 12.148438 173.824219 12.285156 L 173.824219 11.015625 L 176.382812 11.015625 L 176.355469 18.289062 L 173.679688 18.289062 L 173.679688 18.050781 C 173.621094 17.539062 173.390625 16.996094 172.988281 16.425781 C 172.585938 15.851562 172.117188 15.371094 171.582031 14.976562 C 171.042969 14.582031 170.554688 14.386719 170.113281 14.386719 C 169.558594 14.386719 169.078125 14.570312 168.675781 14.945312 C 168.273438 15.320312 167.957031 15.882812 167.726562 16.632812 C 167.515625 17.363281 167.410156 18.277344 167.410156 19.382812 C 167.410156 20.464844 167.515625 21.382812 167.726562 22.132812 C 167.957031 22.863281 168.273438 23.414062 168.675781 23.789062 C 169.078125 24.164062 169.558594 24.351562 170.113281 24.351562 C 170.59375 24.351562 171.121094 24.164062 171.695312 23.789062 C 172.269531 23.394531 172.769531 22.910156 173.191406 22.339844 C 173.613281 21.765625 173.871094 21.226562 173.96875 20.710938 L 173.96875 20.476562 L 176.640625 20.476562 L 176.640625 27.75 L 174.109375 27.75 Z M 174.109375 26.449219 "/>
<path style=" stroke:none;fill-rule:nonzero;fill:rgb(100%,100%,100%);fill-opacity:1;" d="M 179.171875 24.851562 L 181.703125 24.851562 L 181.703125 26.125 C 181.703125 26.675781 181.894531 27.265625 182.277344 27.898438 C 182.660156 28.546875 183.121094 29.089844 183.65625 29.523438 C 184.214844 29.976562 184.710938 30.203125 185.152344 30.203125 C 185.382812 30.203125 185.574219 30.125 185.726562 29.96875 C 185.882812 29.808594 185.957031 29.601562 185.957031 29.347656 L 185.957031 29.316406 C 185.957031 29.140625 185.890625 28.882812 185.757812 28.546875 C 185.640625 28.234375 185.355469 27.582031 184.894531 26.597656 C 184.777344 26.339844 184.644531 26.066406 184.492188 25.769531 C 184.355469 25.472656 184.214844 25.15625 184.058594 24.824219 L 179.257812 14.800781 L 177.53125 14.800781 L 177.53125 11.988281 L 186.648438 11.988281 L 186.648438 14.800781 L 184.953125 14.800781 L 187.339844 20.566406 C 187.394531 20.722656 187.460938 20.898438 187.539062 21.097656 C 187.617188 21.273438 187.691406 21.460938 187.769531 21.660156 C 187.941406 22.09375 188.066406 22.4375 188.144531 22.695312 C 188.179688 22.515625 188.21875 22.359375 188.257812 22.222656 C 188.296875 22.0625 188.34375 21.894531 188.402344 21.71875 L 190.671875 14.800781 L 188.285156 14.800781 L 188.285156 11.988281 L 195.417969 11.988281 L 195.417969 14.800781 L 193.460938 14.800781 L 190.183594 23.523438 C 190.164062 23.5625 190.15625 23.601562 190.15625 23.640625 C 190.15625 23.660156 190.148438 23.691406 190.128906 23.730469 C 189.953125 24.222656 189.828125 24.675781 189.753906 25.089844 C 189.695312 25.503906 189.667969 25.957031 189.667969 26.449219 L 189.667969 26.921875 C 189.667969 28.203125 189.484375 29.296875 189.121094 30.203125 C 188.777344 31.113281 188.277344 31.800781 187.625 32.273438 C 186.972656 32.746094 186.214844 32.984375 185.355469 32.984375 C 184.933594 32.984375 184.5 32.945312 184.058594 32.867188 C 183.617188 32.808594 183.207031 32.71875 182.824219 32.601562 C 182.402344 32.480469 182.046875 32.332031 181.757812 32.15625 L 181.757812 33.515625 L 179.171875 33.515625 Z M 179.171875 24.851562 "/>
<path style=" stroke:none;fill-rule:evenodd;fill:rgb(10.588235%,9.411765%,9.803922%);fill-opacity:1;" d="M 6.25 14.796875 L 4.582031 14.796875 L 4.582031 11.988281 L 12.230469 11.988281 L 12.230469 14.796875 L 11.425781 14.796875 L 13.410156 23.167969 L 13.496094 23.167969 L 14.992188 17.488281 L 14.128906 14.796875 L 12.949219 14.796875 L 12.949219 11.988281 L 21.058594 11.988281 L 21.058594 14.796875 L 19.734375 14.796875 L 21.980469 23.195312 L 22.09375 23.195312 L 24.078125 14.796875 L 22.582031 14.796875 L 22.582031 11.988281 L 28.679688 11.988281 L 28.679688 14.796875 L 26.980469 14.796875 L 23.734375 26.773438 L 18.441406 26.773438 L 16.601562 19.648438 L 14.703125 26.773438 L 9.46875 26.773438 Z M 2.621094 18.953125 C 1.070312 18.21875 0 16.632812 0 14.796875 L 0 11.988281 C 0 9.449219 2.050781 7.390625 4.582031 7.390625 L 12.230469 7.390625 C 12.351562 7.390625 12.472656 7.398438 12.589844 7.40625 C 12.710938 7.398438 12.828125 7.390625 12.949219 7.390625 L 21.058594 7.390625 C 21.320312 7.390625 21.574219 7.414062 21.820312 7.457031 C 22.070312 7.414062 22.324219 7.390625 22.582031 7.390625 L 28.679688 7.390625 C 29.65625 7.390625 30.558594 7.699219 31.304688 8.222656 C 33.019531 7.445312 34.863281 7.097656 36.753906 7.097656 C 37.945312 7.097656 39.125 7.234375 40.261719 7.539062 L 40.261719 6.074219 C 40.261719 3.535156 42.3125 1.476562 44.84375 1.476562 L 52.089844 1.476562 C 54.621094 1.476562 56.671875 3.535156 56.671875 6.074219 L 56.671875 7.113281 C 58.179688 7.199219 59.632812 7.582031 60.980469 8.28125 L 60.980469 4.597656 C 60.980469 2.058594 63.03125 0 65.5625 0 L 68.320312 0 C 69.652344 0 70.851562 0.570312 71.6875 1.476562 L 80.886719 1.476562 C 83.417969 1.476562 85.46875 3.535156 85.46875 6.074219 L 85.46875 7.390625 L 89.683594 7.390625 C 90.085938 7.390625 90.480469 7.445312 90.851562 7.542969 C 91.84375 7.234375 92.867188 7.097656 93.882812 7.097656 C 95.625 7.097656 97.3125 7.480469 98.863281 8.277344 C 99.621094 7.722656 100.554688 7.390625 101.566406 7.390625 L 108.496094 7.390625 C 108.792969 7.390625 109.078125 7.421875 109.359375 7.472656 C 109.664062 7.382812 109.976562 7.3125 110.292969 7.257812 C 111.089844 6.585938 112.117188 6.179688 113.242188 6.179688 L 114.398438 6.179688 C 113.988281 4.925781 114.128906 3.539062 114.820312 2.386719 C 115.644531 0.996094 117.140625 0.148438 118.75 0.148438 L 125.363281 0.148438 C 126.976562 0.148438 128.46875 0.996094 129.296875 2.386719 C 130.125 3.773438 130.164062 5.492188 129.402344 6.917969 L 129.148438 7.390625 L 137.03125 7.390625 C 137.289062 7.390625 137.539062 7.414062 137.78125 7.453125 C 138.023438 7.414062 138.273438 7.390625 138.527344 7.390625 L 144.246094 7.390625 C 145.023438 6.78125 146.003906 6.417969 147.066406 6.417969 L 149.597656 6.417969 C 150.558594 6.417969 151.449219 6.710938 152.183594 7.21875 C 152.785156 7.136719 153.390625 7.097656 153.996094 7.097656 C 156.792969 7.097656 159.589844 7.878906 161.761719 9.992188 C 161.761719 9.992188 161.765625 9.996094 161.765625 9.996094 C 162.359375 9.5 163.003906 9.058594 163.695312 8.675781 C 165.628906 7.59375 167.746094 7.097656 169.941406 7.097656 C 170.402344 7.097656 170.867188 7.117188 171.328125 7.15625 C 172.046875 6.6875 172.902344 6.417969 173.824219 6.417969 L 176.382812 6.417969 C 177.410156 6.417969 178.402344 6.761719 179.207031 7.390625 L 186.648438 7.390625 C 186.925781 7.390625 187.203125 7.417969 187.46875 7.464844 C 187.734375 7.417969 188.007812 7.390625 188.285156 7.390625 L 195.417969 7.390625 C 197.949219 7.390625 200 9.449219 200 11.988281 L 200 14.796875 C 200 16.890625 198.605469 18.65625 196.699219 19.214844 L 194.570312 24.886719 C 194.515625 25.078125 194.457031 25.246094 194.40625 25.378906 C 194.34375 25.570312 194.304688 25.71875 194.277344 25.832031 C 194.261719 25.992188 194.25 26.195312 194.25 26.449219 L 194.25 26.921875 C 194.25 28.605469 194.015625 30.300781 193.386719 31.882812 C 192.789062 33.441406 191.808594 34.914062 190.3125 36 C 188.820312 37.082031 187.105469 37.582031 185.355469 37.582031 C 184.910156 37.582031 184.472656 37.554688 184.039062 37.503906 C 183.367188 37.890625 182.589844 38.113281 181.757812 38.113281 L 179.171875 38.113281 C 176.640625 38.113281 174.589844 36.054688 174.589844 33.515625 L 174.589844 32.347656 L 174.109375 32.347656 C 173.179688 32.347656 172.308594 32.066406 171.585938 31.585938 C 171.039062 31.640625 170.492188 31.667969 169.941406 31.667969 C 168.097656 31.667969 166.300781 31.324219 164.625 30.578125 C 163.890625 31.078125 163.003906 31.371094 162.046875 31.371094 L 155.464844 31.371094 C 154.929688 31.371094 154.417969 31.28125 153.945312 31.113281 C 152.714844 31.503906 151.441406 31.667969 150.171875 31.667969 C 147.964844 31.667969 145.585938 31.125 143.664062 29.421875 C 143.648438 29.410156 143.632812 29.398438 143.617188 29.382812 C 143.488281 29.265625 143.363281 29.144531 143.242188 29.023438 C 142.441406 30.457031 140.921875 31.371094 139.246094 31.371094 L 134.300781 31.371094 C 132.863281 31.371094 131.535156 30.695312 130.679688 29.59375 C 129.84375 30.675781 128.53125 31.371094 127.0625 31.371094 L 117.65625 31.371094 C 116.648438 31.371094 115.71875 31.042969 114.960938 30.492188 C 114.203125 31.042969 113.273438 31.371094 112.265625 31.371094 L 101.566406 31.371094 C 100.550781 31.371094 99.613281 31.039062 98.855469 30.480469 C 98.613281 30.605469 98.367188 30.722656 98.117188 30.828125 L 98.117188 32.6875 C 98.117188 35.226562 96.066406 37.285156 93.535156 37.285156 L 82.753906 37.285156 C 80.222656 37.285156 78.171875 35.226562 78.171875 32.6875 L 78.171875 30.953125 C 76.605469 31.496094 74.949219 31.726562 73.269531 31.726562 C 72.316406 31.726562 71.371094 31.621094 70.441406 31.410156 C 69.703125 31.925781 68.800781 32.230469 67.832031 32.230469 L 65.074219 32.230469 C 63.535156 32.230469 62.179688 31.472656 61.347656 30.308594 C 59.699219 31.238281 57.890625 31.667969 56.027344 31.667969 C 55.019531 31.667969 53.996094 31.535156 52.996094 31.226562 C 52.632812 31.320312 52.253906 31.371094 51.859375 31.371094 L 47.144531 31.371094 C 46.851562 31.371094 46.566406 31.34375 46.289062 31.292969 C 45.496094 31.949219 44.476562 32.347656 43.367188 32.347656 L 40.808594 32.347656 C 39.859375 32.347656 38.980469 32.058594 38.25 31.566406 C 37.707031 31.632812 37.160156 31.667969 36.609375 31.667969 C 34.460938 31.667969 32.378906 31.203125 30.472656 30.171875 C 29.566406 29.683594 28.746094 29.09375 28.015625 28.410156 C 27.34375 30.179688 25.648438 31.371094 23.734375 31.371094 L 18.441406 31.371094 C 17.78125 31.371094 17.148438 31.230469 16.574219 30.972656 C 16 31.230469 15.363281 31.371094 14.703125 31.371094 L 9.46875 31.371094 C 7.398438 31.371094 5.585938 29.976562 5.046875 27.972656 Z M 29.554688 22.816406 C 29.652344 23.039062 29.761719 23.253906 29.882812 23.460938 C 29.925781 23.539062 29.972656 23.613281 30.019531 23.6875 C 30.117188 23.84375 30.222656 23.992188 30.328125 24.136719 C 30.351562 24.167969 30.375 24.203125 30.398438 24.230469 C 31.003906 25.011719 31.75 25.640625 32.640625 26.125 C 32.90625 26.265625 33.179688 26.394531 33.460938 26.503906 C 34.308594 26.839844 35.230469 27.023438 36.226562 27.0625 C 36.351562 27.066406 36.480469 27.070312 36.609375 27.070312 C 36.667969 27.070312 36.726562 27.070312 36.78125 27.066406 C 37.144531 27.0625 37.5 27.03125 37.847656 26.980469 C 38.164062 26.953125 38.476562 26.917969 38.785156 26.875 C 38.886719 26.863281 38.984375 26.847656 39.082031 26.832031 C 39.320312 26.792969 39.542969 26.753906 39.75 26.707031 C 39.765625 26.703125 39.78125 26.703125 39.796875 26.699219 C 40.1875 26.613281 40.527344 26.519531 40.808594 26.417969 L 40.808594 27.75 L 43.367188 27.75 L 43.367188 21.628906 L 40.460938 21.628906 L 40.460938 21.804688 C 40.460938 21.816406 40.457031 21.824219 40.453125 21.835938 C 40.351562 22.183594 40.097656 22.578125 39.6875 23.019531 C 39.675781 23.027344 39.667969 23.039062 39.660156 23.050781 C 39.648438 23.0625 39.636719 23.074219 39.625 23.089844 C 39.375 23.363281 39.09375 23.613281 38.785156 23.84375 C 38.742188 23.875 38.703125 23.902344 38.660156 23.933594 C 38.640625 23.945312 38.625 23.957031 38.609375 23.96875 C 38.492188 24.050781 38.371094 24.128906 38.25 24.203125 C 38.03125 24.339844 37.820312 24.445312 37.617188 24.527344 C 37.578125 24.542969 37.535156 24.558594 37.496094 24.574219 C 37.246094 24.660156 37.007812 24.703125 36.78125 24.703125 C 36.722656 24.703125 36.667969 24.703125 36.609375 24.699219 C 36.179688 24.664062 35.796875 24.496094 35.460938 24.203125 C 35.148438 23.929688 34.882812 23.550781 34.660156 23.0625 C 34.609375 22.945312 34.558594 22.824219 34.511719 22.695312 C 34.507812 22.683594 34.503906 22.671875 34.5 22.660156 C 34.398438 22.355469 34.308594 22.023438 34.238281 21.660156 C 34.171875 21.320312 34.117188 20.953125 34.078125 20.558594 C 34.070312 20.453125 34.058594 20.347656 34.050781 20.238281 L 44.402344 20.238281 C 44.421875 20.082031 44.429688 19.933594 44.429688 19.796875 C 44.449219 19.636719 44.460938 19.492188 44.460938 19.351562 C 44.457031 19.015625 44.4375 18.691406 44.402344 18.375 C 44.355469 17.933594 44.277344 17.507812 44.171875 17.101562 C 44.039062 16.585938 43.859375 16.101562 43.628906 15.640625 C 43.582031 15.546875 43.535156 15.453125 43.480469 15.359375 C 43.441406 15.285156 43.398438 15.210938 43.355469 15.140625 C 43.234375 14.929688 43.101562 14.730469 42.957031 14.539062 C 42.949219 14.527344 42.941406 14.515625 42.929688 14.503906 C 42.8125 14.347656 42.691406 14.199219 42.5625 14.054688 C 42.058594 13.503906 41.464844 13.039062 40.777344 12.667969 C 40.503906 12.511719 40.214844 12.375 39.914062 12.257812 C 38.972656 11.882812 37.917969 11.695312 36.753906 11.695312 C 36.726562 11.695312 36.695312 11.695312 36.667969 11.695312 C 35.488281 11.703125 34.410156 11.90625 33.433594 12.304688 C 33.40625 12.316406 33.375 12.328125 33.347656 12.34375 C 33.316406 12.355469 33.289062 12.367188 33.261719 12.378906 C 33.058594 12.46875 32.863281 12.5625 32.671875 12.667969 C 31.777344 13.160156 31.03125 13.796875 30.429688 14.585938 C 30.402344 14.621094 30.378906 14.652344 30.355469 14.683594 C 30.328125 14.722656 30.300781 14.761719 30.273438 14.796875 C 30.164062 14.953125 30.058594 15.117188 29.960938 15.285156 C 29.933594 15.328125 29.90625 15.375 29.882812 15.417969 C 29.855469 15.46875 29.828125 15.519531 29.800781 15.570312 C 29.21875 16.6875 28.917969 17.960938 28.902344 19.390625 C 28.902344 19.425781 28.902344 19.464844 28.902344 19.5 C 28.902344 20.722656 29.121094 21.828125 29.554688 22.816406 Z M 34.234375 17.183594 C 34.167969 17.574219 34.117188 18 34.078125 18.464844 L 39.3125 18.464844 C 39.269531 18.015625 39.214844 17.601562 39.144531 17.226562 C 39.136719 17.179688 39.125 17.136719 39.117188 17.089844 C 39.050781 16.761719 38.976562 16.464844 38.886719 16.199219 C 38.878906 16.164062 38.867188 16.128906 38.855469 16.097656 C 38.84375 16.066406 38.835938 16.039062 38.824219 16.011719 C 38.777344 15.882812 38.730469 15.757812 38.679688 15.640625 C 38.472656 15.175781 38.222656 14.816406 37.933594 14.5625 C 37.589844 14.265625 37.195312 14.109375 36.753906 14.089844 C 36.726562 14.089844 36.695312 14.089844 36.667969 14.089844 C 36.1875 14.089844 35.765625 14.257812 35.402344 14.589844 C 35.117188 14.839844 34.871094 15.1875 34.667969 15.640625 C 34.613281 15.765625 34.558594 15.898438 34.511719 16.039062 C 34.507812 16.042969 34.507812 16.046875 34.507812 16.050781 C 34.398438 16.386719 34.308594 16.761719 34.234375 17.183594 Z M 47.144531 26.773438 L 51.859375 26.773438 L 51.859375 24.882812 C 52.339844 25.609375 52.921875 26.164062 53.613281 26.539062 C 53.789062 26.628906 53.972656 26.707031 54.164062 26.773438 C 54.320312 26.828125 54.480469 26.878906 54.648438 26.917969 C 55.074219 27.019531 55.535156 27.070312 56.027344 27.070312 C 56.164062 27.070312 56.300781 27.066406 56.433594 27.058594 C 57.191406 27.015625 57.898438 26.855469 58.546875 26.574219 C 58.554688 26.574219 58.558594 26.570312 58.566406 26.566406 C 58.851562 26.441406 59.128906 26.296875 59.394531 26.125 C 59.773438 25.875 60.117188 25.59375 60.433594 25.273438 C 60.453125 25.253906 60.472656 25.234375 60.492188 25.214844 C 60.980469 24.703125 61.390625 24.097656 61.722656 23.402344 C 62.277344 22.242188 62.554688 20.898438 62.554688 19.382812 C 62.554688 19.121094 62.546875 18.863281 62.53125 18.613281 C 62.476562 17.746094 62.320312 16.945312 62.066406 16.203125 C 61.976562 15.941406 61.875 15.6875 61.757812 15.4375 C 61.746094 15.410156 61.734375 15.386719 61.722656 15.359375 C 61.539062 14.980469 61.335938 14.625 61.105469 14.300781 C 60.910156 14.027344 60.699219 13.773438 60.46875 13.539062 C 60.144531 13.207031 59.785156 12.917969 59.394531 12.667969 C 59.117188 12.488281 58.832031 12.332031 58.535156 12.203125 C 58.503906 12.1875 58.472656 12.175781 58.441406 12.164062 C 57.882812 11.929688 57.292969 11.78125 56.671875 11.722656 C 56.460938 11.703125 56.246094 11.695312 56.027344 11.695312 C 55.539062 11.695312 55.078125 11.75 54.648438 11.863281 C 54.335938 11.945312 54.039062 12.054688 53.757812 12.195312 C 53.105469 12.53125 52.550781 13.023438 52.089844 13.675781 L 52.089844 6.074219 L 44.84375 6.074219 L 44.84375 8.882812 L 47.144531 8.882812 Z M 51.898438 18.269531 C 51.851562 18.621094 51.832031 18.992188 51.832031 19.382812 C 51.832031 19.691406 51.84375 19.992188 51.875 20.285156 C 51.929688 20.804688 52.027344 21.292969 52.175781 21.746094 C 52.425781 22.457031 52.761719 23.019531 53.183594 23.433594 C 53.3125 23.554688 53.445312 23.65625 53.582031 23.742188 C 53.914062 23.949219 54.269531 24.054688 54.648438 24.054688 C 54.730469 24.054688 54.808594 24.050781 54.886719 24.042969 C 54.914062 24.039062 54.9375 24.035156 54.964844 24.03125 C 55.347656 23.980469 55.683594 23.832031 55.972656 23.582031 C 55.992188 23.5625 56.011719 23.546875 56.027344 23.527344 C 56.328125 23.246094 56.574219 22.851562 56.761719 22.339844 C 56.796875 22.246094 56.832031 22.144531 56.863281 22.042969 C 57.074219 21.351562 57.179688 20.464844 57.179688 19.382812 C 57.179688 18.296875 57.074219 17.410156 56.863281 16.71875 C 56.835938 16.628906 56.804688 16.539062 56.777344 16.453125 C 56.585938 15.914062 56.335938 15.507812 56.027344 15.230469 C 56.011719 15.214844 55.992188 15.199219 55.972656 15.183594 C 55.707031 14.953125 55.402344 14.808594 55.058594 14.746094 C 55.046875 14.742188 55.03125 14.742188 55.019531 14.738281 C 54.898438 14.71875 54.777344 14.710938 54.648438 14.710938 C 54.355469 14.710938 54.074219 14.773438 53.808594 14.898438 C 53.589844 15 53.382812 15.144531 53.183594 15.332031 C 52.761719 15.726562 52.425781 16.277344 52.175781 16.988281 C 52.046875 17.386719 51.953125 17.8125 51.898438 18.269531 Z M 56.539062 18.414062 C 56.539062 18.414062 56.539062 18.414062 56.535156 18.417969 C 56.539062 18.414062 56.539062 18.414062 56.539062 18.414062 Z M 65.5625 13.230469 L 68.292969 13.230469 L 68.292969 12.226562 C 68.292969 11.890625 68.351562 11.644531 68.464844 11.488281 C 68.601562 11.328125 68.792969 11.222656 69.039062 11.160156 C 69.300781 11.105469 69.667969 11.074219 70.144531 11.074219 C 70.160156 11.074219 70.175781 11.074219 70.191406 11.074219 L 75.222656 11.074219 L 69.355469 16.1875 L 70.738281 18.082031 L 71.023438 17.816406 C 71.28125 17.585938 71.554688 17.402344 71.84375 17.269531 C 71.878906 17.253906 71.910156 17.238281 71.945312 17.222656 C 72.003906 17.199219 72.0625 17.175781 72.125 17.15625 C 72.40625 17.0625 72.683594 17.015625 72.953125 17.015625 C 73.394531 17.015625 73.785156 17.15625 74.128906 17.429688 C 74.269531 17.527344 74.398438 17.644531 74.511719 17.78125 C 74.703125 18.007812 74.863281 18.285156 74.992188 18.613281 C 75.113281 18.917969 75.203125 19.269531 75.253906 19.660156 C 75.289062 19.949219 75.308594 20.261719 75.308594 20.59375 C 75.308594 21.21875 75.238281 21.78125 75.101562 22.289062 C 75.074219 22.375 75.050781 22.460938 75.023438 22.546875 C 74.847656 23.097656 74.570312 23.542969 74.1875 23.875 C 73.925781 24.09375 73.621094 24.234375 73.269531 24.300781 C 73.105469 24.332031 72.933594 24.351562 72.75 24.351562 C 72.507812 24.351562 72.265625 24.320312 72.019531 24.265625 C 71.683594 24.1875 71.347656 24.054688 71.011719 23.867188 C 70.890625 23.800781 70.773438 23.726562 70.652344 23.648438 C 70.566406 23.589844 70.480469 23.527344 70.390625 23.460938 C 70.222656 23.328125 70.058594 23.183594 69.902344 23.035156 C 69.839844 22.976562 69.78125 22.917969 69.71875 22.859375 C 69.699219 22.835938 69.675781 22.8125 69.65625 22.789062 C 69.554688 22.683594 69.457031 22.578125 69.363281 22.464844 C 69.164062 22.234375 68.976562 21.984375 68.804688 21.722656 C 68.699219 21.5625 68.59375 21.394531 68.496094 21.21875 C 68.496094 21.21875 68.496094 21.21875 68.496094 21.214844 C 68.285156 20.828125 68.121094 20.449219 68.003906 20.089844 C 67.851562 19.625 67.773438 19.183594 67.773438 18.761719 L 67.773438 18.613281 L 65.074219 18.613281 L 65.074219 27.632812 L 67.832031 27.632812 L 67.832031 25.769531 C 68.035156 25.816406 68.234375 25.875 68.433594 25.9375 C 68.460938 25.945312 68.492188 25.957031 68.523438 25.964844 C 68.617188 25.996094 68.714844 26.03125 68.8125 26.066406 C 69.105469 26.148438 69.386719 26.234375 69.65625 26.316406 C 69.699219 26.332031 69.742188 26.347656 69.789062 26.359375 C 70.269531 26.597656 70.8125 26.785156 71.425781 26.921875 C 71.757812 26.996094 72.085938 27.050781 72.414062 27.085938 C 72.527344 27.097656 72.636719 27.105469 72.75 27.113281 C 72.921875 27.125 73.09375 27.128906 73.269531 27.128906 C 74.453125 27.128906 75.523438 26.976562 76.476562 26.675781 C 76.511719 26.664062 76.550781 26.652344 76.585938 26.640625 C 76.902344 26.535156 77.207031 26.410156 77.496094 26.273438 C 77.925781 26.054688 78.324219 25.8125 78.679688 25.542969 C 79.308594 25.074219 79.824219 24.515625 80.226562 23.875 C 80.28125 23.789062 80.335938 23.699219 80.386719 23.609375 C 80.910156 22.671875 81.175781 21.628906 81.175781 20.476562 C 81.175781 19.976562 81.125 19.503906 81.023438 19.054688 C 80.902344 18.535156 80.714844 18.054688 80.457031 17.609375 C 80.433594 17.566406 80.410156 17.527344 80.386719 17.484375 C 80.136719 17.070312 79.84375 16.707031 79.503906 16.390625 C 79.257812 16.164062 78.992188 15.960938 78.699219 15.785156 C 78.625 15.742188 78.550781 15.699219 78.472656 15.65625 C 78.390625 15.609375 78.308594 15.566406 78.226562 15.523438 C 77.980469 15.398438 77.726562 15.296875 77.460938 15.210938 C 77.03125 15.074219 76.574219 14.988281 76.09375 14.960938 C 76.019531 14.953125 75.941406 14.949219 75.863281 14.949219 C 75.804688 14.949219 75.742188 14.945312 75.683594 14.945312 C 75.535156 14.945312 75.382812 14.957031 75.222656 14.972656 C 75.09375 14.988281 74.957031 15.007812 74.820312 15.035156 C 74.625 15.058594 74.445312 15.097656 74.273438 15.144531 C 74.175781 15.171875 74.078125 15.207031 73.988281 15.242188 L 80.886719 8.855469 L 80.886719 6.074219 L 68.320312 6.074219 L 68.320312 4.597656 L 65.5625 4.597656 Z M 82.753906 14.796875 L 84.96875 14.796875 L 84.96875 29.878906 L 82.753906 29.878906 L 82.753906 32.6875 L 93.535156 32.6875 L 93.535156 30.027344 L 89.941406 30.027344 L 89.941406 25.058594 C 90.03125 25.1875 90.125 25.3125 90.21875 25.429688 C 90.621094 25.917969 91.085938 26.296875 91.609375 26.566406 C 91.886719 26.710938 92.183594 26.824219 92.5 26.90625 C 92.824219 26.988281 93.171875 27.039062 93.535156 27.0625 C 93.648438 27.066406 93.765625 27.070312 93.882812 27.070312 C 94.097656 27.070312 94.3125 27.058594 94.523438 27.039062 C 95.152344 26.984375 95.742188 26.839844 96.296875 26.609375 C 96.335938 26.59375 96.371094 26.574219 96.410156 26.558594 C 96.4375 26.546875 96.46875 26.53125 96.496094 26.519531 C 96.664062 26.441406 96.828125 26.359375 96.984375 26.265625 C 97.0625 26.21875 97.140625 26.171875 97.214844 26.125 C 97.617188 25.863281 97.980469 25.558594 98.3125 25.214844 C 98.664062 24.847656 98.976562 24.429688 99.25 23.964844 C 99.355469 23.785156 99.453125 23.597656 99.546875 23.402344 C 100.105469 22.273438 100.390625 20.980469 100.40625 19.515625 C 100.410156 19.472656 100.410156 19.425781 100.410156 19.382812 C 100.410156 19.335938 100.410156 19.292969 100.40625 19.246094 C 100.390625 17.765625 100.113281 16.460938 99.574219 15.332031 C 99.488281 15.148438 99.394531 14.96875 99.292969 14.796875 C 99 14.292969 98.65625 13.84375 98.265625 13.453125 C 97.957031 13.144531 97.617188 12.875 97.246094 12.640625 C 97.160156 12.585938 97.074219 12.535156 96.984375 12.484375 C 96.761719 12.359375 96.535156 12.246094 96.300781 12.152344 C 95.664062 11.890625 94.980469 11.742188 94.257812 11.703125 C 94.132812 11.695312 94.007812 11.695312 93.882812 11.695312 C 93.390625 11.695312 92.929688 11.746094 92.5 11.851562 C 92.34375 11.890625 92.191406 11.9375 92.046875 11.988281 C 91.835938 12.0625 91.632812 12.152344 91.4375 12.253906 C 90.746094 12.609375 90.160156 13.144531 89.683594 13.851562 L 89.683594 11.988281 L 82.753906 11.988281 Z M 89.746094 20.464844 C 89.804688 20.917969 89.898438 21.34375 90.027344 21.746094 C 90.257812 22.457031 90.585938 23.019531 91.007812 23.433594 C 91.210938 23.625 91.425781 23.773438 91.65625 23.875 C 91.921875 23.996094 92.203125 24.054688 92.5 24.054688 C 92.644531 24.054688 92.78125 24.042969 92.914062 24.015625 C 93.246094 23.953125 93.550781 23.804688 93.824219 23.582031 C 93.84375 23.5625 93.863281 23.546875 93.882812 23.527344 C 94.179688 23.246094 94.417969 22.847656 94.59375 22.335938 C 94.628906 22.242188 94.65625 22.144531 94.6875 22.042969 C 94.898438 21.351562 95.003906 20.464844 95.003906 19.382812 C 95.003906 18.296875 94.898438 17.410156 94.6875 16.71875 C 94.65625 16.617188 94.628906 16.515625 94.59375 16.417969 C 94.417969 15.898438 94.179688 15.5 93.882812 15.234375 C 93.863281 15.214844 93.84375 15.199219 93.824219 15.183594 C 93.5 14.917969 93.136719 14.761719 92.730469 14.722656 C 92.71875 14.71875 92.707031 14.71875 92.695312 14.71875 C 92.632812 14.710938 92.566406 14.710938 92.5 14.710938 C 92.105469 14.710938 91.742188 14.8125 91.40625 15.023438 C 91.265625 15.109375 91.132812 15.210938 91.007812 15.332031 C 90.585938 15.726562 90.257812 16.277344 90.027344 16.988281 C 89.882812 17.4375 89.78125 17.925781 89.730469 18.449219 C 89.699219 18.75 89.683594 19.058594 89.683594 19.382812 C 89.683594 19.757812 89.703125 20.121094 89.746094 20.464844 Z M 101.566406 26.773438 L 112.265625 26.773438 L 112.265625 23.964844 L 108.757812 23.964844 L 108.757812 18.761719 C 108.757812 18.710938 108.757812 18.660156 108.757812 18.613281 C 108.757812 18.605469 108.757812 18.597656 108.757812 18.589844 C 108.757812 18.546875 108.757812 18.503906 108.761719 18.457031 C 108.761719 18.371094 108.765625 18.285156 108.769531 18.199219 C 108.796875 17.648438 108.871094 17.167969 108.984375 16.75 C 109.160156 16.179688 109.378906 15.746094 109.648438 15.449219 C 109.933594 15.132812 110.261719 14.976562 110.625 14.976562 C 110.8125 14.976562 111.011719 15.023438 111.21875 15.125 C 111.292969 15.160156 111.371094 15.199219 111.449219 15.25 C 111.480469 15.269531 111.511719 15.289062 111.542969 15.308594 C 111.554688 15.316406 111.566406 15.324219 111.574219 15.328125 C 111.636719 15.371094 111.699219 15.417969 111.761719 15.46875 C 111.765625 15.472656 111.769531 15.476562 111.773438 15.480469 C 111.804688 15.5 111.832031 15.523438 111.863281 15.546875 C 112.058594 15.703125 112.238281 15.882812 112.40625 16.078125 C 112.441406 16.121094 112.480469 16.167969 112.515625 16.214844 C 112.644531 16.378906 112.761719 16.558594 112.867188 16.75 C 113.125 17.160156 113.273438 17.5625 113.316406 17.960938 C 113.320312 17.996094 113.320312 18.03125 113.324219 18.066406 C 113.324219 18.09375 113.328125 18.121094 113.328125 18.148438 C 113.328125 18.167969 113.328125 18.183594 113.328125 18.199219 L 113.328125 18.613281 L 115.800781 18.613281 L 115.800781 10.777344 L 113.242188 10.777344 L 113.242188 12.167969 C 113.191406 12.144531 113.136719 12.125 113.078125 12.101562 C 113.078125 12.101562 113.078125 12.101562 113.074219 12.101562 C 113.027344 12.085938 112.976562 12.066406 112.925781 12.046875 L 112.582031 11.929688 C 112.199219 11.8125 111.863281 11.753906 111.574219 11.753906 C 111.453125 11.753906 111.335938 11.757812 111.21875 11.769531 C 111.015625 11.792969 110.816406 11.832031 110.625 11.890625 C 110.535156 11.921875 110.445312 11.953125 110.355469 11.988281 C 110.234375 12.039062 110.117188 12.097656 110.003906 12.167969 C 109.910156 12.222656 109.820312 12.28125 109.734375 12.34375 C 109.199219 12.738281 108.785156 13.289062 108.496094 14 L 108.496094 11.988281 L 101.566406 11.988281 L 101.566406 14.796875 L 103.78125 14.796875 L 103.78125 23.964844 L 101.566406 23.964844 Z M 117.65625 14.796875 L 119.871094 14.796875 L 119.871094 23.964844 L 117.65625 23.964844 L 117.65625 26.773438 L 127.0625 26.773438 L 127.0625 23.964844 L 124.847656 23.964844 L 124.847656 11.988281 L 117.65625 11.988281 Z M 121.914062 10.660156 L 122.203125 10.660156 L 125.363281 4.746094 L 118.75 4.746094 Z M 127.800781 11.988281 L 127.800781 14.796875 L 129.585938 14.796875 L 134.300781 26.773438 L 139.246094 26.773438 L 143.90625 14.796875 L 145.6875 14.796875 L 145.6875 11.988281 L 138.527344 11.988281 L 138.527344 14.796875 L 140.886719 14.796875 L 138.011719 22.632812 L 137.925781 22.632812 L 135.078125 14.796875 L 137.03125 14.796875 L 137.03125 11.988281 Z M 147.066406 11.015625 L 147.066406 17.875 L 149.625 17.875 L 149.625 17.636719 C 149.65625 17.390625 149.730469 17.136719 149.855469 16.875 C 149.914062 16.753906 149.984375 16.628906 150.0625 16.503906 C 150.152344 16.359375 150.257812 16.214844 150.375 16.070312 C 150.429688 16.003906 150.484375 15.9375 150.539062 15.871094 C 150.632812 15.765625 150.730469 15.660156 150.832031 15.558594 C 150.953125 15.4375 151.082031 15.320312 151.214844 15.210938 C 151.21875 15.207031 151.226562 15.203125 151.230469 15.199219 C 151.363281 15.085938 151.503906 14.980469 151.648438 14.878906 C 151.652344 14.875 151.65625 14.875 151.660156 14.871094 C 151.671875 14.867188 151.679688 14.859375 151.6875 14.855469 C 151.773438 14.792969 151.863281 14.738281 151.957031 14.679688 C 152 14.65625 152.039062 14.628906 152.082031 14.605469 C 152.144531 14.574219 152.203125 14.542969 152.261719 14.511719 C 152.328125 14.476562 152.398438 14.445312 152.464844 14.414062 C 152.480469 14.40625 152.492188 14.402344 152.503906 14.398438 C 152.664062 14.328125 152.816406 14.273438 152.96875 14.226562 C 153.007812 14.21875 153.046875 14.207031 153.085938 14.199219 C 153.300781 14.144531 153.507812 14.117188 153.710938 14.117188 C 153.808594 14.117188 153.90625 14.125 153.996094 14.136719 C 154.15625 14.15625 154.304688 14.191406 154.433594 14.246094 C 154.628906 14.324219 154.789062 14.4375 154.917969 14.589844 C 155.1875 14.90625 155.320312 15.429688 155.320312 16.160156 C 155.320312 16.285156 155.3125 16.410156 155.296875 16.527344 C 155.246094 16.894531 155.121094 17.207031 154.917969 17.460938 C 154.800781 17.605469 154.652344 17.738281 154.46875 17.855469 C 154.390625 17.90625 154.300781 17.957031 154.207031 18.003906 C 154.148438 18.03125 154.085938 18.058594 154.019531 18.085938 C 154.003906 18.09375 153.988281 18.097656 153.96875 18.105469 C 153.945312 18.117188 153.914062 18.128906 153.886719 18.136719 C 153.867188 18.144531 153.84375 18.15625 153.816406 18.164062 C 153.800781 18.167969 153.78125 18.175781 153.761719 18.183594 C 153.746094 18.1875 153.726562 18.195312 153.710938 18.199219 C 153.554688 18.25 153.382812 18.296875 153.195312 18.339844 C 153.078125 18.367188 152.949219 18.394531 152.816406 18.417969 C 152.816406 18.417969 152.816406 18.417969 152.8125 18.417969 C 152.742188 18.429688 152.671875 18.441406 152.59375 18.453125 C 152.265625 18.507812 151.898438 18.550781 151.496094 18.582031 C 150.816406 18.636719 150.191406 18.722656 149.625 18.84375 C 149.578125 18.855469 149.527344 18.867188 149.480469 18.875 C 149.453125 18.882812 149.429688 18.886719 149.40625 18.894531 C 148.457031 19.117188 147.679688 19.433594 147.066406 19.855469 C 147.039062 19.875 147.007812 19.894531 146.980469 19.914062 C 146.910156 19.964844 146.839844 20.019531 146.773438 20.074219 C 146.617188 20.203125 146.472656 20.335938 146.347656 20.480469 C 145.914062 20.964844 145.640625 21.539062 145.523438 22.203125 C 145.480469 22.453125 145.457031 22.714844 145.457031 22.988281 C 145.457031 23.132812 145.460938 23.273438 145.472656 23.410156 C 145.558594 24.460938 145.964844 25.3125 146.691406 25.976562 C 146.914062 26.171875 147.160156 26.339844 147.429688 26.484375 C 147.5 26.523438 147.574219 26.558594 147.648438 26.59375 C 148.34375 26.910156 149.183594 27.070312 150.171875 27.070312 C 150.417969 27.070312 150.65625 27.0625 150.890625 27.042969 C 151.378906 27.007812 151.839844 26.929688 152.273438 26.8125 C 152.320312 26.800781 152.367188 26.789062 152.414062 26.773438 C 152.71875 26.6875 153.003906 26.578125 153.277344 26.449219 C 153.863281 26.167969 154.375 25.796875 154.8125 25.332031 C 154.816406 25.328125 154.820312 25.324219 154.824219 25.320312 C 155.058594 25.074219 155.269531 24.796875 155.464844 24.496094 L 155.464844 26.773438 L 162.046875 26.773438 L 162.046875 23.964844 L 160.207031 23.964844 L 160.207031 17.753906 C 160.207031 16.894531 160.097656 16.117188 159.875 15.429688 C 159.65625 14.742188 159.324219 14.144531 158.886719 13.628906 C 158.785156 13.511719 158.679688 13.398438 158.570312 13.289062 C 158.226562 12.957031 157.84375 12.675781 157.417969 12.449219 C 156.523438 11.96875 155.445312 11.71875 154.179688 11.695312 C 154.121094 11.695312 154.058594 11.695312 153.996094 11.695312 C 153.902344 11.695312 153.804688 11.695312 153.710938 11.699219 C 153.371094 11.707031 153.046875 11.738281 152.730469 11.78125 C 152.355469 11.820312 151.992188 11.882812 151.648438 11.972656 C 151.625 11.976562 151.605469 11.984375 151.582031 11.988281 C 151.230469 12.058594 150.863281 12.117188 150.480469 12.171875 C 150.464844 12.175781 150.453125 12.175781 150.4375 12.179688 C 150.382812 12.1875 150.328125 12.195312 150.269531 12.203125 C 150.050781 12.230469 149.828125 12.257812 149.597656 12.285156 L 149.597656 11.015625 Z M 162.148438 19.371094 C 162.148438 18.808594 162.199219 18.269531 162.292969 17.753906 C 162.445312 16.917969 162.722656 16.136719 163.125 15.417969 C 163.238281 15.222656 163.359375 15.035156 163.488281 14.851562 C 163.710938 14.535156 163.957031 14.242188 164.222656 13.972656 C 164.710938 13.472656 165.277344 13.050781 165.914062 12.699219 C 166.066406 12.613281 166.21875 12.535156 166.378906 12.460938 C 167.253906 12.042969 168.207031 11.796875 169.242188 11.71875 C 169.46875 11.703125 169.703125 11.695312 169.941406 11.695312 C 170 11.695312 170.054688 11.695312 170.113281 11.695312 C 170.664062 11.703125 171.226562 11.753906 171.796875 11.84375 C 171.90625 11.863281 172.015625 11.878906 172.125 11.902344 C 172.425781 11.953125 172.699219 12.003906 172.949219 12.058594 C 173.183594 12.109375 173.398438 12.164062 173.59375 12.21875 C 173.671875 12.238281 173.75 12.261719 173.824219 12.285156 L 173.824219 11.015625 L 176.382812 11.015625 L 176.355469 18.289062 L 173.679688 18.289062 L 173.679688 18.050781 C 173.636719 17.667969 173.496094 17.265625 173.257812 16.847656 C 173.179688 16.707031 173.089844 16.566406 172.988281 16.425781 C 172.898438 16.296875 172.804688 16.171875 172.707031 16.054688 C 172.695312 16.039062 172.679688 16.019531 172.667969 16.003906 C 172.398438 15.679688 172.105469 15.390625 171.785156 15.132812 C 171.722656 15.085938 171.664062 15.035156 171.601562 14.992188 C 171.59375 14.984375 171.585938 14.980469 171.582031 14.976562 C 171.574219 14.972656 171.570312 14.96875 171.566406 14.964844 C 171.035156 14.578125 170.550781 14.382812 170.113281 14.382812 C 170.054688 14.382812 169.996094 14.386719 169.941406 14.390625 C 169.457031 14.425781 169.035156 14.609375 168.675781 14.945312 C 168.355469 15.246094 168.089844 15.664062 167.878906 16.199219 C 167.871094 16.222656 167.859375 16.242188 167.851562 16.261719 C 167.808594 16.378906 167.765625 16.503906 167.726562 16.632812 C 167.6875 16.773438 167.648438 16.921875 167.617188 17.074219 C 167.480469 17.722656 167.410156 18.492188 167.410156 19.382812 C 167.410156 20.269531 167.480469 21.042969 167.621094 21.703125 C 167.652344 21.851562 167.6875 21.996094 167.726562 22.132812 C 167.769531 22.265625 167.8125 22.394531 167.863281 22.515625 C 167.871094 22.535156 167.878906 22.554688 167.886719 22.574219 C 168.097656 23.089844 168.359375 23.492188 168.675781 23.789062 C 169.035156 24.121094 169.457031 24.308594 169.941406 24.34375 C 169.996094 24.347656 170.054688 24.351562 170.113281 24.351562 C 170.355469 24.351562 170.609375 24.300781 170.875 24.207031 C 171.136719 24.113281 171.410156 23.972656 171.695312 23.789062 C 171.714844 23.773438 171.734375 23.761719 171.757812 23.746094 C 171.816406 23.703125 171.875 23.660156 171.933594 23.613281 C 171.976562 23.582031 172.019531 23.550781 172.058594 23.519531 C 172.3125 23.316406 172.550781 23.089844 172.773438 22.847656 C 172.785156 22.832031 172.800781 22.816406 172.8125 22.804688 C 172.945312 22.65625 173.070312 22.5 173.191406 22.339844 C 173.300781 22.1875 173.402344 22.039062 173.488281 21.894531 C 173.558594 21.777344 173.625 21.664062 173.679688 21.546875 C 173.820312 21.261719 173.917969 20.984375 173.96875 20.710938 L 173.96875 20.476562 L 176.640625 20.476562 L 176.640625 27.75 L 174.109375 27.75 L 174.109375 26.449219 C 173.964844 26.503906 173.796875 26.554688 173.613281 26.601562 C 173.585938 26.609375 173.558594 26.617188 173.53125 26.625 C 173.199219 26.703125 172.808594 26.773438 172.355469 26.832031 C 172.257812 26.851562 172.160156 26.871094 172.058594 26.886719 C 171.757812 26.941406 171.453125 26.980469 171.148438 27.011719 C 170.804688 27.042969 170.457031 27.0625 170.113281 27.070312 C 170.058594 27.070312 170 27.070312 169.941406 27.070312 C 169.800781 27.070312 169.664062 27.066406 169.527344 27.0625 C 168.484375 27.019531 167.519531 26.8125 166.628906 26.4375 C 166.535156 26.398438 166.4375 26.355469 166.34375 26.3125 C 166.199219 26.242188 166.054688 26.171875 165.914062 26.09375 C 164.949219 25.546875 164.152344 24.839844 163.527344 23.964844 C 163.515625 23.949219 163.503906 23.933594 163.492188 23.921875 C 163.363281 23.734375 163.242188 23.542969 163.125 23.34375 C 162.476562 22.160156 162.148438 20.839844 162.148438 19.382812 C 162.148438 19.378906 162.148438 19.375 162.148438 19.371094 Z M 179.171875 33.515625 L 181.757812 33.515625 L 181.757812 32.15625 C 182.046875 32.332031 182.402344 32.480469 182.824219 32.597656 C 183.117188 32.691406 183.425781 32.761719 183.753906 32.820312 C 183.855469 32.835938 183.957031 32.851562 184.058594 32.867188 C 184.429688 32.933594 184.792969 32.96875 185.152344 32.980469 C 185.21875 32.984375 185.285156 32.984375 185.355469 32.984375 C 185.699219 32.984375 186.03125 32.945312 186.339844 32.871094 C 186.808594 32.757812 187.234375 32.558594 187.625 32.273438 C 187.710938 32.210938 187.796875 32.144531 187.878906 32.074219 C 188.40625 31.613281 188.820312 30.988281 189.121094 30.203125 C 189.230469 29.933594 189.320312 29.648438 189.398438 29.347656 C 189.398438 29.335938 189.402344 29.328125 189.402344 29.316406 C 189.566406 28.660156 189.652344 27.925781 189.664062 27.113281 C 189.664062 27.085938 189.664062 27.058594 189.667969 27.03125 C 189.667969 27.011719 189.667969 26.992188 189.667969 26.972656 C 189.667969 26.957031 189.667969 26.9375 189.667969 26.921875 L 189.667969 26.449219 C 189.667969 26.304688 189.667969 26.167969 189.675781 26.03125 C 189.6875 25.695312 189.710938 25.382812 189.753906 25.089844 C 189.828125 24.675781 189.953125 24.222656 190.128906 23.730469 C 190.144531 23.6875 190.15625 23.660156 190.15625 23.640625 C 190.15625 23.601562 190.164062 23.5625 190.183594 23.523438 L 191.765625 19.316406 L 193.460938 14.796875 L 195.417969 14.796875 L 195.417969 11.988281 L 188.285156 11.988281 L 188.285156 14.796875 L 190.671875 14.796875 L 188.402344 21.71875 C 188.34375 21.894531 188.296875 22.0625 188.257812 22.21875 C 188.230469 22.316406 188.203125 22.421875 188.175781 22.539062 C 188.164062 22.589844 188.15625 22.640625 188.144531 22.695312 C 188.125 22.632812 188.101562 22.5625 188.078125 22.492188 C 188.042969 22.386719 188.003906 22.273438 187.957031 22.148438 C 187.957031 22.144531 187.953125 22.140625 187.953125 22.136719 C 187.898438 21.992188 187.839844 21.832031 187.769531 21.660156 C 187.746094 21.601562 187.726562 21.546875 187.703125 21.488281 C 187.648438 21.351562 187.59375 21.222656 187.539062 21.097656 C 187.460938 20.898438 187.394531 20.722656 187.339844 20.566406 L 184.953125 14.796875 L 186.648438 14.796875 L 186.648438 11.988281 L 177.53125 11.988281 L 177.53125 14.796875 L 179.257812 14.796875 L 184.058594 24.824219 C 184.0625 24.832031 184.070312 24.84375 184.074219 24.851562 C 184.207031 25.140625 184.332031 25.417969 184.449219 25.675781 C 184.460938 25.707031 184.476562 25.738281 184.492188 25.769531 C 184.554688 25.890625 184.613281 26.007812 184.671875 26.125 C 184.710938 26.207031 184.75 26.285156 184.785156 26.363281 C 184.792969 26.375 184.796875 26.386719 184.800781 26.398438 C 184.835938 26.464844 184.863281 26.53125 184.894531 26.597656 C 184.960938 26.742188 185.023438 26.878906 185.085938 27.007812 C 185.105469 27.058594 185.128906 27.109375 185.152344 27.15625 C 185.203125 27.269531 185.253906 27.375 185.300781 27.476562 C 185.300781 27.480469 185.304688 27.488281 185.304688 27.492188 C 185.53125 27.988281 185.679688 28.339844 185.757812 28.546875 C 185.808594 28.675781 185.847656 28.789062 185.878906 28.894531 C 185.886719 28.921875 185.894531 28.945312 185.902344 28.972656 C 185.9375 29.109375 185.957031 29.222656 185.957031 29.316406 L 185.957031 29.347656 C 185.957031 29.523438 185.921875 29.679688 185.847656 29.808594 C 185.816406 29.867188 185.773438 29.917969 185.726562 29.96875 C 185.621094 30.078125 185.496094 30.148438 185.355469 30.183594 C 185.289062 30.195312 185.222656 30.203125 185.152344 30.203125 C 184.964844 30.203125 184.765625 30.164062 184.554688 30.078125 C 184.515625 30.066406 184.476562 30.046875 184.4375 30.03125 C 184.21875 29.929688 183.992188 29.785156 183.753906 29.601562 C 183.75 29.597656 183.746094 29.597656 183.746094 29.59375 C 183.722656 29.574219 183.699219 29.558594 183.675781 29.539062 C 183.667969 29.535156 183.664062 29.53125 183.65625 29.523438 C 183.621094 29.496094 183.585938 29.464844 183.550781 29.4375 C 183.53125 29.417969 183.507812 29.398438 183.488281 29.382812 C 183.480469 29.375 183.476562 29.371094 183.46875 29.367188 C 183.460938 29.359375 183.457031 29.351562 183.449219 29.347656 C 183.4375 29.335938 183.425781 29.328125 183.414062 29.316406 C 182.980469 28.921875 182.601562 28.449219 182.277344 27.898438 C 182.265625 27.878906 182.253906 27.859375 182.242188 27.84375 C 182.234375 27.828125 182.230469 27.816406 182.222656 27.804688 C 182.175781 27.726562 182.132812 27.648438 182.09375 27.570312 C 182.054688 27.492188 182.015625 27.417969 181.984375 27.339844 C 181.953125 27.265625 181.921875 27.195312 181.894531 27.125 C 181.878906 27.074219 181.859375 27.027344 181.84375 26.976562 C 181.75 26.683594 181.703125 26.398438 181.703125 26.125 L 181.703125 24.851562 L 179.171875 24.851562 Z M 155.1875 21.824219 C 155.140625 21.953125 155.085938 22.082031 155.027344 22.210938 C 155.015625 22.226562 155.007812 22.246094 155 22.265625 C 154.980469 22.300781 154.964844 22.335938 154.945312 22.367188 C 154.890625 22.476562 154.832031 22.582031 154.769531 22.679688 C 154.578125 22.988281 154.355469 23.257812 154.101562 23.492188 C 154.078125 23.511719 154.054688 23.535156 154.03125 23.554688 C 154.027344 23.558594 154.023438 23.5625 154.019531 23.566406 C 153.933594 23.640625 153.847656 23.707031 153.757812 23.773438 C 153.753906 23.777344 153.753906 23.777344 153.75 23.777344 C 153.746094 23.78125 153.742188 23.785156 153.738281 23.789062 C 153.257812 24.121094 152.769531 24.289062 152.273438 24.289062 C 152.261719 24.289062 152.253906 24.289062 152.246094 24.289062 C 151.777344 24.285156 151.402344 24.105469 151.121094 23.757812 C 151.007812 23.617188 150.917969 23.460938 150.847656 23.289062 C 150.75 23.042969 150.699219 22.761719 150.691406 22.445312 C 150.691406 22.421875 150.691406 22.394531 150.691406 22.367188 C 150.691406 22.359375 150.691406 22.355469 150.691406 22.347656 C 150.695312 21.667969 150.894531 21.132812 151.292969 20.742188 C 151.347656 20.6875 151.40625 20.632812 151.46875 20.582031 C 151.476562 20.574219 151.484375 20.570312 151.488281 20.5625 C 151.492188 20.5625 151.492188 20.5625 151.496094 20.558594 C 151.507812 20.550781 151.515625 20.542969 151.527344 20.535156 C 151.566406 20.503906 151.601562 20.476562 151.640625 20.449219 C 151.644531 20.449219 151.648438 20.445312 151.652344 20.445312 C 151.726562 20.394531 151.808594 20.34375 151.894531 20.296875 C 152.011719 20.234375 152.136719 20.179688 152.273438 20.128906 C 152.511719 20.039062 152.78125 19.964844 153.078125 19.914062 C 153.148438 19.902344 153.214844 19.890625 153.28125 19.875 C 153.46875 19.835938 153.648438 19.789062 153.816406 19.738281 C 153.9375 19.703125 154.050781 19.660156 154.160156 19.617188 C 154.164062 19.617188 154.167969 19.613281 154.175781 19.613281 C 154.285156 19.570312 154.386719 19.519531 154.484375 19.46875 C 154.871094 19.253906 155.1875 19.007812 155.433594 18.730469 L 155.433594 20.296875 C 155.433594 20.5625 155.414062 20.8125 155.378906 21.058594 C 155.371094 21.097656 155.367188 21.136719 155.359375 21.175781 C 155.316406 21.402344 155.261719 21.617188 155.1875 21.824219 Z M 155.1875 21.824219 "/>
<path style=" stroke:none;fill-rule:nonzero;fill:rgb(100%,100%,100%);fill-opacity:1;" d="M 8.128906 41.695312 C 8.128906 41.601562 8.203125 41.523438 8.296875 41.523438 L 46.597656 41.523438 C 46.691406 41.523438 46.765625 41.601562 46.765625 41.695312 L 46.765625 56.140625 C 46.765625 56.234375 46.691406 56.308594 46.597656 56.308594 L 8.296875 56.308594 C 8.203125 56.308594 8.128906 56.234375 8.128906 56.140625 Z M 8.128906 41.695312 "/>
<path style=" stroke:none;fill-rule:evenodd;fill:rgb(10.588235%,9.411765%,9.803922%);fill-opacity:1;" d="M 8.296875 36.929688 L 46.597656 36.929688 C 49.222656 36.929688 51.351562 39.0625 51.351562 41.695312 L 51.351562 56.140625 C 51.351562 58.773438 49.222656 60.90625 46.597656 60.90625 L 8.296875 60.90625 C 5.671875 60.90625 3.546875 58.773438 3.546875 56.140625 L 3.546875 41.695312 C 3.546875 39.0625 5.671875 36.929688 8.296875 36.929688 Z M 8.296875 41.523438 C 8.203125 41.523438 8.128906 41.601562 8.128906 41.695312 L 8.128906 56.140625 C 8.128906 56.234375 8.203125 56.308594 8.296875 56.308594 L 46.597656 56.308594 C 46.691406 56.308594 46.769531 56.234375 46.769531 56.140625 L 46.769531 41.695312 C 46.769531 41.601562 46.691406 41.523438 46.597656 41.523438 Z M 8.296875 41.523438 "/>
</g>
</svg>
